<svg width="26" height="26" viewBox="0 0 26 26" fill="none" xmlns="http://www.w3.org/2000/svg">
<path d="M21.952 9.63716C21.8966 9.55161 21.8017 9.50005 21.7 9.50005H20.8217V8.50454C20.8217 7.98262 20.4777 7.5441 20.0064 7.39053C19.8735 3.84555 16.7824 1 12.9994 1C9.21631 1 6.1251 3.84579 5.99239 7.39091C5.5217 7.54483 5.17832 7.98306 5.17832 8.50454V9.50005H4.3C4.19834 9.50005 4.10342 9.55161 4.04805 9.63716C3.22275 10.9129 2.62744 12.3046 2.27881 13.7737C1.43008 17.3496 1 21.0257 1 24.7C1 24.8657 1.13418 25 1.3 25H24.7C24.8658 25 25 24.8657 25 24.7C25 21.0257 24.5699 17.3496 23.7212 13.7737C23.3726 12.3046 22.7772 10.9129 21.952 9.63716ZM20.2217 8.50454V9.50005H17.2056V8.50454C17.2056 8.18652 17.4643 7.92783 17.7821 7.92783H19.6451C19.963 7.92783 20.2217 8.18652 20.2217 8.50454ZM9.39443 9.50005V8.50454C9.39443 7.99695 9.0695 7.56737 8.61821 7.40269C8.74392 5.23375 10.6578 3.504 12.9994 3.504C15.3411 3.504 17.2551 5.23391 17.3806 7.40303C16.93 7.56805 16.6056 7.99738 16.6056 8.50454V9.50005H9.39443ZM12.9994 1.6C16.4281 1.6 19.2287 4.14385 19.3966 7.32783H17.9767C17.8118 4.86298 15.6457 2.904 12.9994 2.904C10.3531 2.904 8.18702 4.86298 8.02213 7.32783H6.6022C6.77017 4.14385 9.57073 1.6 12.9994 1.6ZM5.77832 8.50454C5.77832 8.18652 6.03701 7.92783 6.35488 7.92783H8.21787C8.53574 7.92783 8.79443 8.18652 8.79443 8.50454V9.50005H5.77832V8.50454ZM1.60088 24.4C1.62373 20.8724 2.04795 17.3453 2.8624 13.9123C3.18291 12.5625 3.72168 11.2807 4.46436 10.1H21.5356C22.2783 11.2807 22.8171 12.5625 23.1376 13.9123C23.9521 17.3453 24.3763 20.8724 24.3991 24.4H1.60088Z" fill="black" stroke="black" stroke-width="0.7"/>
<path d="M18.0321 14.388C17.5092 13.4822 16.5936 12.9203 15.5597 12.8612C14.9917 11.9954 14.0471 11.4834 13.001 11.4834C11.9548 11.4834 11.0102 11.9954 10.4422 12.8612C9.40828 12.9203 8.49275 13.4822 7.9698 14.388C7.44685 15.294 7.41785 16.3679 7.88367 17.293C7.41785 18.218 7.44685 19.292 7.9698 20.1979C8.49275 21.1038 9.40828 21.6657 10.4422 21.7249C11.0102 22.5907 11.9548 23.1025 13.001 23.1025C14.0471 23.1025 14.9917 22.5907 15.5597 21.7249C16.5936 21.6657 17.5092 21.1038 18.0321 20.1979C18.5551 19.292 18.5841 18.218 18.1182 17.293C18.5841 16.3679 18.5551 15.294 18.0321 14.388ZM17.5124 14.688C17.9276 15.4069 17.9505 16.2558 17.5913 16.993H15.0424C14.9644 16.4611 14.6846 15.9948 14.2816 15.6751L15.5562 13.4676C16.3741 13.5251 17.0975 13.9693 17.5124 14.688ZM13.001 18.7588C12.1927 18.7588 11.5352 18.1013 11.5352 17.293C11.5352 16.4848 12.1927 15.8272 13.001 15.8272C13.8093 15.8272 14.4667 16.4848 14.4667 17.293C14.4667 18.1013 13.8093 18.7588 13.001 18.7588ZM13.001 12.0834C13.831 12.0834 14.5776 12.4879 15.0364 13.1676L13.7622 15.3744C13.5263 15.2805 13.27 15.2272 13.001 15.2272C12.732 15.2272 12.4756 15.2805 12.2397 15.3744L10.9655 13.1676C11.4243 12.4879 12.1709 12.0834 13.001 12.0834ZM8.48953 14.688C8.90442 13.9693 9.62782 13.5251 10.4458 13.4676L11.7203 15.6751C11.3173 15.9948 11.0375 16.4611 10.9595 16.993H8.41063C8.05143 16.2558 8.07435 15.4069 8.48953 14.688ZM8.48953 19.8979C8.07435 19.179 8.05143 18.3301 8.41063 17.593H10.9595C11.0375 18.1249 11.3173 18.5912 11.7203 18.9109L10.4458 21.1185C9.62782 21.061 8.90442 20.6166 8.48953 19.8979ZM13.001 22.5025C12.1709 22.5025 11.4243 22.0981 10.9655 21.4185L12.2396 19.2116C12.4755 19.3056 12.7319 19.3588 13.001 19.3588C13.27 19.3588 13.5264 19.3056 13.7623 19.2116L15.0364 21.4185C14.5776 22.0981 13.831 22.5025 13.001 22.5025ZM17.5124 19.8979C17.0975 20.6166 16.3741 21.061 15.5562 21.1185L14.2816 18.9109C14.6846 18.5912 14.9644 18.1249 15.0424 17.593H17.5913C17.9505 18.3301 17.9276 19.179 17.5124 19.8979Z" fill="black" stroke="black" stroke-width="0.7"/>
</svg>
