<svg width="38" height="38" viewBox="0 0 38 38" fill="none" xmlns="http://www.w3.org/2000/svg">
<path d="M32.4074 13.9557C32.3244 13.8274 32.182 13.7501 32.0295 13.7501H30.712V12.2568C30.712 11.4739 30.1961 10.8161 29.4891 10.5858C29.2898 5.26833 24.6531 1 18.9786 1C13.304 1 8.66715 5.26868 8.46808 10.5864C7.76204 10.8172 7.24697 11.4746 7.24697 12.2568V13.7501H5.92949C5.777 13.7501 5.63462 13.8274 5.55156 13.9557C4.31362 15.8693 3.42065 17.957 2.89771 20.1606C1.62461 25.5243 0.979492 31.0386 0.979492 36.55C0.979492 36.7985 1.18076 37 1.42949 37H36.5295C36.7782 37 36.9795 36.7985 36.9795 36.55C36.9795 31.0386 36.3344 25.5243 35.0613 20.1606C34.5383 17.957 33.6454 15.8693 32.4074 13.9557ZM29.812 12.2568V13.7501H25.2878V12.2568C25.2878 11.7798 25.6759 11.3917 26.1527 11.3917H28.9472C29.424 11.3917 29.812 11.7798 29.812 12.2568ZM13.5711 13.7501V12.2568C13.5711 11.4954 13.0837 10.8511 12.4068 10.604C12.5954 7.35062 15.4662 4.75601 18.9786 4.75601C22.4912 4.75601 25.3622 7.35087 25.5504 10.6046C24.8744 10.8521 24.3878 11.4961 24.3878 12.2568V13.7501H13.5711ZM18.9786 1.9C24.1216 1.9 28.3225 5.71577 28.5744 10.4917H26.4445C26.1972 6.79446 22.948 3.85601 18.9786 3.85601C15.0092 3.85601 11.76 6.79446 11.5127 10.4917H9.3828C9.63474 5.71577 13.8356 1.9 18.9786 1.9ZM8.14697 12.2568C8.14697 11.7798 8.53501 11.3917 9.01182 11.3917H11.8063C12.2831 11.3917 12.6711 11.7798 12.6711 12.2568V13.7501H8.14697V12.2568ZM1.88081 36.1C1.91509 30.8085 2.55142 25.518 3.7731 20.3685C4.25386 18.3437 5.06201 16.4211 6.17603 14.6501H31.783C32.897 16.4211 33.7051 18.3437 34.1859 20.3685C35.4076 25.518 36.0439 30.8085 36.0782 36.1H1.88081Z" fill="black" stroke="black" stroke-width="0.7"/>
<path d="M26.5267 21.0816C25.7422 19.7228 24.369 18.8799 22.8181 18.7914C21.966 17.4926 20.5492 16.7246 18.9799 16.7246C17.4107 16.7246 15.9939 17.4926 15.1418 18.7914C13.5909 18.8799 12.2176 19.7228 11.4332 21.0816C10.6488 22.4406 10.6053 24.0514 11.304 25.439C10.6053 26.8265 10.6488 28.4376 11.4332 29.7964C12.2176 31.1552 13.5909 31.998 15.1418 32.0868C15.9939 33.3856 17.4107 34.1533 18.9799 34.1533C20.5492 34.1533 21.966 33.3856 22.8181 32.0868C24.369 31.998 25.7422 31.1552 26.5267 29.7964C27.3111 28.4376 27.3546 26.8265 26.6559 25.439C27.3546 24.0514 27.3111 22.4406 26.5267 21.0816ZM25.7471 21.5316C26.3698 22.6099 26.4042 23.8832 25.8654 24.989H22.0421C21.9252 24.1911 21.5054 23.4917 20.9008 23.0122L22.8127 19.7009C24.0396 19.7871 25.1247 20.4535 25.7471 21.5316ZM18.9799 27.6378C17.7675 27.6378 16.7814 26.6514 16.7814 25.439C16.7814 24.2267 17.7675 23.2404 18.9799 23.2404C20.1924 23.2404 21.1785 24.2267 21.1785 25.439C21.1785 26.6514 20.1924 27.6378 18.9799 27.6378ZM18.9799 17.6246C20.2251 17.6246 21.3449 18.2314 22.0332 19.2509L20.1219 22.5611C19.768 22.4202 19.3834 22.3404 18.9799 22.3404C18.5764 22.3404 18.1919 22.4202 17.838 22.5612L15.9267 19.2509C16.6149 18.2314 17.7348 17.6246 18.9799 17.6246ZM12.2128 21.5316C12.8352 20.4535 13.9202 19.7871 15.1471 19.7009L17.059 23.0122C16.4545 23.4917 16.0347 24.1911 15.9178 24.989H12.0945C11.5557 23.8832 11.59 22.6099 12.2128 21.5316ZM12.2128 29.3464C11.59 28.2681 11.5557 26.9947 12.0945 25.889H15.9178C16.0347 26.6868 16.4545 27.3863 17.059 27.8658L15.1471 31.1772C13.9202 31.091 12.8352 30.4244 12.2128 29.3464ZM18.9799 33.2533C17.7348 33.2533 16.6149 32.6467 15.9267 31.6272L17.8379 28.3169C18.1918 28.4579 18.5764 28.5378 18.9799 28.5378C19.3835 28.5378 19.7681 28.4579 20.1219 28.3169L22.0332 31.6272C21.3449 32.6467 20.2251 33.2533 18.9799 33.2533ZM25.7471 29.3464C25.1247 30.4244 24.0396 31.091 22.8127 31.1772L20.9009 27.8658C21.5054 27.3863 21.9252 26.6868 22.0421 25.889H25.8654C26.4042 26.9947 26.3698 28.2681 25.7471 29.3464Z" fill="black" stroke="black" stroke-width="0.7"/>
</svg>
