<svg width="37" height="24" viewBox="0 0 37 24" fill="none" xmlns="http://www.w3.org/2000/svg">
<path d="M16.3075 21.4388C7.54541 21.4388 1.88281 16.6585 1.88281 9.25979V0.685344C1.88281 0.306649 2.19082 0 2.56773 0H30.0472C30.4246 0 30.7326 0.306649 30.7326 0.685344V9.26024C30.733 16.6585 25.0709 21.4388 16.3075 21.4388ZM3.25354 1.37069V9.26024C3.25354 15.8264 8.37803 20.0681 16.3075 20.0681C24.2378 20.0681 29.3618 15.8264 29.3618 9.26024V1.37069H3.25354Z" fill="black"/>
<path d="M30.6534 23.9998H1.96438C0.880045 23.9998 -0.00390625 23.1173 -0.00390625 22.0348C-0.00390625 20.9505 0.880045 20.0684 1.96438 20.0684H30.6538C31.7382 20.0684 32.6194 20.9505 32.6194 22.0348C32.6194 23.1173 31.7382 23.9998 30.6534 23.9998ZM1.96438 21.439C1.63476 21.439 1.36683 21.7065 1.36683 22.0343C1.36683 22.3621 1.63476 22.6287 1.96438 22.6287H30.6538C30.9812 22.6287 31.2482 22.3621 31.2482 22.0343C31.2482 21.7065 30.9807 21.439 30.6538 21.439H1.96438Z" fill="black"/>
<path d="M31.9988 16.0534C30.7915 16.0534 29.6567 15.5824 28.8025 14.7282C28.5346 14.4607 28.5346 14.0271 28.8025 13.7592C29.0704 13.4917 29.5036 13.4917 29.7716 13.7592C30.3655 14.3549 31.1581 14.6832 31.9983 14.6832C33.7388 14.6832 35.1523 13.2683 35.1523 11.5293V6.0056C35.1523 4.26657 33.7388 2.85311 31.9983 2.85311C31.5462 2.85311 31.1072 2.94677 30.7001 3.13184C30.352 3.28719 29.9476 3.13454 29.7923 2.78917C29.6365 2.44379 29.79 2.03853 30.1345 1.88183C30.7217 1.61661 31.3476 1.48242 31.9983 1.48242C34.4939 1.48242 36.5235 3.51188 36.5235 6.0056V11.5289C36.5239 14.0244 34.4944 16.0534 31.9988 16.0534Z" fill="black"/>
<path d="M30.0477 4.59657H2.56773C2.19037 4.59657 1.88281 4.29037 1.88281 3.91123V0.685344C1.88281 0.306649 2.19082 0 2.56773 0H30.0472C30.4246 0 30.7326 0.306649 30.7326 0.685344V3.91123C30.733 4.28992 30.425 4.59657 30.0477 4.59657ZM3.25354 3.22589H29.3618V1.37069H3.25354V3.22589Z" fill="black"/>
<path d="M16.3096 21.4387C16.2695 21.4387 16.2295 21.4342 16.1871 21.4283C8.24372 20.014 9.46945 4.51226 9.52574 3.85348C9.55771 3.47479 9.92471 3.19381 10.2674 3.22848C10.6448 3.26045 10.923 3.59232 10.8911 3.96876C10.8807 4.11871 9.70767 18.8833 16.428 20.0784C16.8 20.1441 17.049 20.5007 16.9819 20.874C16.9234 21.2059 16.6343 21.4387 16.3096 21.4387Z" fill="black"/>
<path d="M16.3038 21.4392C15.9795 21.4392 15.6909 21.206 15.6319 20.8741C15.5653 20.5008 15.8138 20.1446 16.1858 20.0784C22.9111 18.8825 21.7326 4.11878 21.7223 3.96883C21.6903 3.59239 21.9686 3.26052 22.3464 3.22855C22.6968 3.19343 23.0529 3.47441 23.0881 3.85356C23.1439 4.51233 24.3701 20.0145 16.4262 21.4284C16.3844 21.4352 16.3438 21.4392 16.3038 21.4392Z" fill="black"/>
</svg>
