<svg width="69" height="45" viewBox="0 0 69 45" fill="none" xmlns="http://www.w3.org/2000/svg">
<path d="M31.004 40.1989C14.5747 40.1989 3.95703 31.2356 3.95703 17.3626V1.28506C3.95703 0.574983 4.53457 0 5.24128 0H56.7668C57.4744 0 58.0519 0.574983 58.0519 1.28506V17.3634C58.0527 31.2356 47.4359 40.1989 31.004 40.1989ZM6.52723 2.57011V17.3634C6.52723 29.6753 16.1359 37.6288 31.004 37.6288C45.8739 37.6288 55.4817 29.6753 55.4817 17.3634V2.57011H6.52723Z" fill="white"/>
<path d="M57.9079 45.0007H4.11447C2.08128 45.0007 0.423828 43.3458 0.423828 41.3161C0.423828 39.2829 2.08128 37.6289 4.11447 37.6289H57.9087C59.9419 37.6289 61.5943 39.2829 61.5943 41.3161C61.5943 43.3458 59.9419 45.0007 57.9079 45.0007ZM4.11447 40.199C3.49641 40.199 2.99402 40.7005 2.99402 41.3152C2.99402 41.9299 3.49641 42.4297 4.11447 42.4297H57.9087C58.5226 42.4297 59.0233 41.9299 59.0233 41.3152C59.0233 40.7005 58.5217 40.199 57.9087 40.199H4.11447Z" fill="white"/>
<path d="M60.4266 30.0987C58.1629 30.0987 56.0352 29.2155 54.4334 27.6139C53.931 27.1123 53.931 26.2993 54.4334 25.7969C54.9358 25.2954 55.7481 25.2954 56.2505 25.7969C57.3642 26.9139 58.8502 27.5294 60.4258 27.5294C63.6892 27.5294 66.3396 24.8766 66.3396 21.6158V11.2585C66.3396 7.99778 63.6892 5.34745 60.4258 5.34745C59.578 5.34745 58.7548 5.52307 57.9915 5.87009C57.3388 6.16138 56.5806 5.87515 56.2893 5.22756C55.9972 4.57997 56.2851 3.82008 56.931 3.52626C58.032 3.02895 59.2057 2.77734 60.4258 2.77734C65.1051 2.77734 68.9106 6.5827 68.9106 11.2585V21.615C68.9115 26.2942 65.106 30.0987 60.4266 30.0987Z" fill="white"/>
<path d="M56.7676 8.61882H5.24128C4.53372 8.61882 3.95703 8.04468 3.95703 7.33377V1.28506C3.95703 0.574983 4.53457 0 5.24128 0H56.7668C57.4744 0 58.0519 0.574983 58.0519 1.28506V7.33377C58.0527 8.04384 57.4752 8.61882 56.7676 8.61882ZM6.52723 6.04871H55.4817V2.57011H6.52723V6.04871Z" fill="white"/>
<path d="M31.0071 40.1975C30.932 40.1975 30.8569 40.189 30.7775 40.178C15.8832 37.526 18.1815 8.45946 18.287 7.22422C18.347 6.51414 19.0351 5.98729 19.6777 6.0523C20.3852 6.11225 20.9071 6.73451 20.8471 7.44036C20.8277 7.72152 18.6282 35.4059 31.2292 37.6468C31.9266 37.77 32.3936 38.4387 32.2678 39.1387C32.158 39.7609 31.6159 40.1975 31.0071 40.1975Z" fill="white"/>
<path d="M31.0066 40.1984C30.3987 40.1984 29.8574 39.7611 29.7468 39.1388C29.6219 38.4389 30.0879 37.771 30.7854 37.6469C43.3957 35.4044 41.1861 7.72166 41.1666 7.4405C41.1067 6.73465 41.6285 6.11238 42.3369 6.05244C42.9938 5.98658 43.6617 6.51343 43.7275 7.22435C43.8322 8.45959 46.1314 37.527 31.2363 40.1782C31.1577 40.1908 31.0817 40.1984 31.0066 40.1984Z" fill="white"/>
</svg>
