<svg width="32" height="21" viewBox="0 0 32 21" fill="none" xmlns="http://www.w3.org/2000/svg">
<path d="M14.2102 18.6072C6.90836 18.6072 2.18945 14.6235 2.18945 8.45782V1.31234C2.18945 0.996756 2.44613 0.741211 2.76022 0.741211H25.6601C25.9746 0.741211 26.2313 0.996756 26.2313 1.31234V8.45819C26.2317 14.6235 21.5131 18.6072 14.2102 18.6072ZM3.33175 1.88347V8.45819C3.33175 13.9301 7.60222 17.4649 14.2102 17.4649C20.8189 17.4649 25.089 13.9301 25.089 8.45819V1.88347H3.33175Z" fill="#BD2124"/>
<path d="M26.1673 20.7411H2.25941C1.35578 20.7411 0.619141 20.0056 0.619141 19.1036C0.619141 18.2 1.35578 17.4648 2.25941 17.4648H26.1676C27.0713 17.4648 27.8057 18.2 27.8057 19.1036C27.8057 20.0056 27.0713 20.7411 26.1673 20.7411ZM2.25941 18.6071C1.98471 18.6071 1.76143 18.83 1.76143 19.1032C1.76143 19.3764 1.98471 19.5985 2.25941 19.5985H26.1676C26.4405 19.5985 26.663 19.3764 26.663 19.1032C26.663 18.83 26.4401 18.6071 26.1676 18.6071H2.25941Z" fill="#BD2124"/>
<path d="M27.2881 14.1182C26.282 14.1182 25.3364 13.7257 24.6245 13.0139C24.4012 12.791 24.4012 12.4296 24.6245 12.2064C24.8478 11.9835 25.2088 11.9835 25.4321 12.2064C25.927 12.7028 26.5875 12.9764 27.2877 12.9764C28.7381 12.9764 29.916 11.7973 29.916 10.3481V5.74496C29.916 4.29575 28.7381 3.11784 27.2877 3.11784C26.911 3.11784 26.5451 3.19589 26.2058 3.35012C25.9158 3.47958 25.5788 3.35237 25.4493 3.06456C25.3195 2.77674 25.4474 2.43902 25.7345 2.30843C26.2239 2.08741 26.7455 1.97559 27.2877 1.97559C29.3674 1.97559 31.0587 3.66683 31.0587 5.74496V10.3478C31.0591 12.4274 29.3678 14.1182 27.2881 14.1182Z" fill="#BD2124"/>
<path d="M25.6605 4.57175H2.76022C2.44576 4.57175 2.18945 4.31658 2.18945 4.00062V1.31234C2.18945 0.996756 2.44613 0.741211 2.76022 0.741211H25.6601C25.9746 0.741211 26.2313 0.996756 26.2313 1.31234V4.00062C26.2317 4.3162 25.975 4.57175 25.6605 4.57175ZM3.33175 3.42949H25.089V1.88347H3.33175V3.42949Z" fill="#BD2124"/>
<path d="M14.2132 18.6065C14.1798 18.6065 14.1464 18.6028 14.1111 18.5979C7.4915 17.4193 8.51296 4.50096 8.55986 3.95197C8.58651 3.63638 8.89235 3.40223 9.17792 3.43112C9.49239 3.45776 9.7243 3.73432 9.69766 4.04803C9.68902 4.17299 8.71147 16.477 14.3119 17.4729C14.6218 17.5277 14.8293 17.8249 14.7734 18.136C14.7247 18.4125 14.4837 18.6065 14.2132 18.6065Z" fill="#BD2124"/>
<path d="M14.2115 18.607C13.9413 18.607 13.7007 18.4126 13.6516 18.136C13.596 17.825 13.8032 17.5281 14.1132 17.473C19.7177 16.4763 18.7356 4.17305 18.727 4.04809C18.7003 3.73438 18.9323 3.45782 19.2471 3.43118C19.5391 3.40191 19.8359 3.63607 19.8652 3.95203C19.9117 4.50102 20.9335 17.4197 14.3135 18.598C14.2786 18.6036 14.2449 18.607 14.2115 18.607Z" fill="#BD2124"/>
</svg>
