<svg width="269" height="361" viewBox="0 0 269 361" fill="none" xmlns="http://www.w3.org/2000/svg">
<g opacity="0.8">
<path d="M95.9211 154.258C43.4683 138.512 18.1597 99.7212 31.4547 55.4309L46.8622 4.1026C47.5427 1.83566 49.9376 0.553483 52.1939 1.23077L216.696 50.6105C218.955 51.2886 220.248 53.6777 219.567 55.9447L204.159 107.276C190.867 151.564 148.382 170.005 95.9211 154.258ZM53.8364 10.6684L39.6595 57.8968C27.8607 97.203 50.9156 131.803 98.3841 146.052C145.858 160.303 184.154 144.119 195.953 104.813L210.13 57.5841L53.8364 10.6684Z" fill="white"/>
<path d="M199.541 150.211C192.314 148.042 186.367 143.183 182.788 136.535C181.665 134.452 182.444 131.856 184.529 130.734C186.614 129.614 189.207 130.393 190.33 132.475C192.816 137.109 196.97 140.498 202 142.008C212.419 145.135 223.423 139.206 226.548 128.796L236.474 95.7299C239.599 85.3197 233.677 74.3184 223.258 71.1909C220.552 70.3785 217.755 70.1502 214.985 70.5266C212.623 70.831 210.476 69.1906 210.167 66.844C209.855 64.4965 211.502 62.3465 213.846 62.0274C217.838 61.4949 221.826 61.8164 225.721 62.9857C240.661 67.4702 249.163 83.266 244.682 98.1938L234.757 131.257C230.276 146.197 214.48 154.696 199.541 150.211Z" fill="white"/>
<path d="M208.439 78.1273L43.9342 28.7467C41.6752 28.0687 40.3843 25.683 41.0656 23.4134L46.8622 4.1026C47.5427 1.83566 49.9376 0.553483 52.1939 1.23077L216.696 50.6105C218.955 51.2886 220.248 53.6777 219.567 55.9447L213.771 75.2555C213.093 77.5232 210.698 78.8054 208.439 78.1273ZM50.5028 21.7739L206.796 68.6897L210.13 57.5841L53.8364 10.6684L50.5028 21.7739Z" fill="white"/>
<path d="M95.9385 154.258C95.6986 154.186 95.4668 154.087 95.2239 153.976C50.2134 131.235 85.4064 40.6411 86.9272 36.7987C87.799 34.5892 90.5009 33.5667 92.49 34.39C94.6916 35.2595 95.7612 37.7462 94.8934 39.9422C94.5619 40.8212 61.0088 127.097 99.0919 146.327C101.2 147.389 102.05 149.972 100.978 152.086C100.031 153.967 97.8821 154.841 95.9385 154.258Z" fill="white"/>
<path d="M95.9363 154.261C93.9955 153.678 92.6866 151.763 92.9298 149.671C93.2017 147.316 95.3297 145.631 97.6753 145.903C140.085 150.829 159.559 60.333 159.767 59.4168C160.252 57.1058 162.514 55.6193 164.833 56.1068C166.993 56.5261 168.621 58.8482 168.15 61.181C167.3 65.2249 146.784 160.227 96.689 154.416C96.4262 154.382 96.1763 154.333 95.9363 154.261Z" fill="white"/>
</g>
<path d="M11.1482 185.777C5.73787 164.358 -0.216286 144.328 40.1338 137.199C40.1338 137.199 190.764 99.7124 195.739 98.5922C200.713 97.472 200.894 104.97 201.954 107.446C207.38 104.313 218.953 102.752 225.414 105.379C237.027 110.102 241.597 116.167 243.259 127.146L256.729 180.471C262.139 201.89 249.162 223.639 227.743 229.049L73.196 268.087C51.7774 273.498 30.0282 260.52 24.6179 239.102L11.1482 185.777Z" fill="#FFD459"/>
<g opacity="0.8">
<path d="M144.418 249.299C91.2903 262.592 49.7043 242.198 38.4806 197.338L25.4732 145.35C24.8988 143.054 26.3012 140.727 28.5865 140.155L195.204 98.4682C197.492 97.8958 199.825 99.2878 200.399 101.584L213.407 153.575C224.633 198.432 197.553 236.005 144.418 249.299ZM34.8241 147.426L46.7925 195.261C56.7532 235.073 94.2594 253.018 142.338 240.989C190.423 228.958 215.057 195.466 205.096 155.654L193.128 107.819L34.8241 147.426Z" fill="white"/>
<path d="M231.398 192.833C224.078 194.665 216.483 193.531 210.007 189.647C207.977 188.432 207.319 185.803 208.537 183.772C209.756 181.744 212.383 181.087 214.413 182.302C218.918 185.013 224.222 185.801 229.316 184.526C239.869 181.886 246.294 171.163 243.656 160.619L235.276 127.128C232.638 116.584 221.923 110.158 211.37 112.798C208.629 113.484 206.109 114.718 203.922 116.458C202.047 117.928 199.363 117.616 197.897 115.757C196.429 113.9 196.745 111.209 198.596 109.737C201.754 107.238 205.346 105.475 209.291 104.488C224.423 100.702 239.807 109.928 243.59 125.048L251.969 158.536C255.757 173.666 246.529 189.048 231.398 192.833Z" fill="white"/>
<path d="M202.18 126.337L35.5594 168.025C33.2714 168.598 30.942 167.208 30.3669 164.909L25.4732 145.35C24.8988 143.054 26.3012 140.727 28.5865 140.155L195.204 98.4682C197.492 97.8958 199.825 99.2878 200.399 101.584L205.293 121.143C205.87 123.438 204.468 125.765 202.18 126.337ZM37.6384 158.674L195.942 119.067L193.128 107.819L34.8241 147.426L37.6384 158.674Z" fill="white"/>
<path d="M144.434 249.29C144.191 249.351 143.942 249.385 143.676 249.413C93.3669 252.888 77.2831 157.039 76.625 152.959C76.2444 150.615 78.0434 148.354 80.1738 148.045C82.5103 147.666 84.7011 149.256 85.0783 151.587C85.243 152.512 100.528 243.812 143.089 240.863C145.444 240.697 147.495 242.482 147.654 244.847C147.803 246.948 146.403 248.798 144.434 249.29Z" fill="white"/>
<path d="M144.433 249.295C142.467 249.786 140.363 248.81 139.502 246.887C138.532 244.725 139.499 242.188 141.653 241.223C180.617 223.769 151.075 136.042 150.785 135.148C150.02 132.914 151.204 130.48 153.447 129.713C155.517 128.969 158.103 130.132 158.892 132.377C160.229 136.287 191.181 228.419 145.159 249.043C144.916 249.148 144.676 249.234 144.433 249.295Z" fill="white"/>
</g>
<rect x="27.7656" y="210.604" width="229" height="150" fill="#FFD459"/>
<g opacity="0.8">
<path d="M129.701 344.599C74.9356 344.599 39.543 314.722 39.543 268.479V214.888C39.543 212.521 41.4681 210.604 43.8239 210.604H215.577C217.936 210.604 219.861 212.521 219.861 214.888V268.482C219.864 314.722 184.474 344.599 129.701 344.599ZM48.1104 219.171V268.482C48.1104 309.521 80.1397 336.032 129.701 336.032C179.267 336.032 211.294 309.521 211.294 268.482V219.171H48.1104Z" fill="white"/>
<path d="M219.381 360.604H40.0679C33.2905 360.604 27.7656 355.088 27.7656 348.323C27.7656 341.546 33.2905 336.032 40.0679 336.032H219.384C226.161 336.032 231.669 341.546 231.669 348.323C231.669 355.088 226.161 360.604 219.381 360.604ZM40.0679 344.599C38.0077 344.599 36.333 346.271 36.333 348.32C36.333 350.369 38.0077 352.035 40.0679 352.035H219.384C221.43 352.035 223.099 350.369 223.099 348.32C223.099 346.271 221.427 344.599 219.384 344.599H40.0679Z" fill="white"/>
<path d="M227.784 310.933C220.239 310.933 213.146 307.989 207.807 302.65C206.132 300.979 206.132 298.268 207.807 296.594C209.481 294.922 212.189 294.922 213.864 296.594C217.576 300.317 222.53 302.369 227.781 302.369C238.66 302.369 247.494 293.526 247.494 282.657V248.133C247.494 237.264 238.66 228.43 227.781 228.43C224.956 228.43 222.211 229.016 219.667 230.172C217.492 231.143 214.964 230.189 213.993 228.031C213.019 225.872 213.979 223.339 216.132 222.36C219.802 220.702 223.714 219.863 227.781 219.863C243.38 219.863 256.065 232.548 256.065 248.133V282.654C256.067 298.251 243.382 310.933 227.784 310.933Z" fill="white"/>
<path d="M215.58 239.333H43.8239C41.4653 239.333 39.543 237.42 39.543 235.05V214.888C39.543 212.521 41.4681 210.604 43.8239 210.604H215.577C217.936 210.604 219.861 212.521 219.861 214.888V235.05C219.864 237.417 217.939 239.333 215.58 239.333ZM48.1104 230.767H211.294V219.171H48.1104V230.767Z" fill="white"/>
<path d="M129.717 344.594C129.466 344.594 129.216 344.566 128.951 344.529C79.3032 335.69 86.9644 238.803 87.3162 234.685C87.516 232.318 89.8099 230.562 91.9517 230.779C94.3103 230.979 96.0497 233.053 95.8498 235.406C95.7851 236.343 88.4533 328.623 130.457 336.092C132.782 336.503 134.338 338.732 133.919 341.065C133.553 343.139 131.746 344.594 129.717 344.594Z" fill="white"/>
<path d="M129.716 344.597C127.69 344.597 125.885 343.14 125.517 341.065C125.1 338.732 126.654 336.506 128.979 336.092C171.014 328.617 163.648 236.343 163.583 235.406C163.383 233.053 165.123 230.979 167.484 230.779C169.674 230.56 171.9 232.316 172.12 234.686C172.469 238.803 180.133 335.693 130.482 344.53C130.22 344.572 129.967 344.597 129.716 344.597Z" fill="white"/>
</g>
</svg>
