<svg width="1820" height="1828" viewBox="0 0 1820 1828" fill="none" xmlns="http://www.w3.org/2000/svg">
<path d="M910.408 913.006L669.141 12.6735L1151.06 14.7209L910.408 913.006L1151.14 1811.33L669.212 1813.33L910.408 913.006Z" fill="#00B27E"/>
<path d="M910.445 912.93L610.724 30.3345L1091.74 0.811523L910.445 912.93L1209.5 1793.56L728.738 1827.12L910.445 912.93Z" fill="#99CE88"/>
<path d="M910.999 913.449L1811.33 672.181L1809.28 1154.1L910.999 913.449L12.6752 1154.18L10.6774 672.252L910.999 913.449Z" fill="#00B27E"/>
<path d="M911.056 913.469L1798.8 629.344L1819.84 1110.81L911.056 913.469L25.2972 1196.96L0.212891 715.683L911.056 913.469Z" fill="#99CE88"/>
<path d="M96.9126 462.354L430.249 114.298L910.337 913.216L1725.58 1365.09L1389.34 1710.33L910.337 913.216L96.9126 462.354Z" fill="#00B27E"/>
<path d="M68.5235 518.03L377.754 148.391L910.369 913.293L1754.1 1309.44L1441.78 1676.47L910.369 913.293L68.5235 518.03Z" fill="#99CE88"/>
<path d="M910.33 913.244L458.46 1728.49L113.219 1392.25L910.33 913.244L1361.19 99.8189L1709.25 433.156L910.33 913.244Z" fill="#00B27E"/>
<path d="M910.28 913.263L492.964 1746.72L133.938 1425.24L910.28 913.263L1326.66 81.6616L1688.38 400.123L910.28 913.263Z" fill="#99CE88"/>
</svg>
