<svg width="41" height="24" viewBox="0 0 41 24" fill="none" xmlns="http://www.w3.org/2000/svg">
<g clip-path="url(#clip0_222_453)">
<mask id="path-1-inside-1_222_453" fill="white">
<path d="M51.5091 47.3609C51.1251 47.5889 50.7171 47.8049 50.3091 48.0149C49.4617 49.6056 48.2227 50.9541 46.7091 51.9329C42.3771 54.8909 35.2611 56.3729 28.1091 56.3729C20.9571 56.3729 13.8891 54.9029 9.54512 51.9449C8.03013 50.9653 6.79086 49.6145 5.94513 48.0209C5.51912 47.8109 5.10513 47.5949 4.74512 47.3669C1.69712 45.5669 0.185127 43.3649 0.251125 40.8149C0.179127 38.2769 1.69113 36.0689 4.73313 34.2689C5.71643 33.7014 6.74374 33.2138 7.80513 32.8109C8.71113 28.4609 11.0871 26.3609 12.8151 25.3829C17.0151 22.9829 23.0151 23.9669 27.4851 27.6929V14.0129H26.1351C24.2151 14.0129 22.7631 11.8589 22.1631 10.7969L4.76313 11.7329H4.66713C1.73912 11.7329 0.203125 10.0169 0.203125 8.31886C0.203125 6.62086 1.73312 4.89886 4.70913 4.89886L22.1091 5.84086C22.7091 4.77286 24.1611 2.62486 26.0811 2.62486H27.4311V2.52886C27.4271 2.04679 27.5621 1.57378 27.82 1.16646C28.0779 0.759144 28.4477 0.434774 28.8851 0.232191C29.3226 0.0296073 29.8091 -0.0426056 30.2866 0.0241977C30.764 0.091001 31.2121 0.29399 31.5771 0.608861C32.0286 0.217911 32.6059 0.00272659 33.2031 0.00272659C33.8004 0.00272659 34.3776 0.217911 34.8291 0.608861C35.2846 0.216666 35.8661 0.00155083 36.4671 0.00286077C37.1366 0.00444527 37.7782 0.271086 38.2515 0.744459C38.7249 1.21783 38.9915 1.85941 38.9931 2.52886V3.86086H40.0671C40.3058 3.86086 40.5347 3.95568 40.7035 4.12446C40.8723 4.29325 40.9671 4.52217 40.9671 4.76086C40.9671 4.99956 40.8723 5.22847 40.7035 5.39726C40.5347 5.56604 40.3058 5.66086 40.0671 5.66086H38.9811V7.41886H40.0671C40.3058 7.41886 40.5347 7.51368 40.7035 7.68247C40.8723 7.85125 40.9671 8.08017 40.9671 8.31886C40.9671 8.55756 40.8723 8.78647 40.7035 8.95526C40.5347 9.12404 40.3058 9.21886 40.0671 9.21886H38.9811V10.9769H40.0671C40.3058 10.9769 40.5347 11.0717 40.7035 11.2405C40.8723 11.4092 40.9671 11.6382 40.9671 11.8769C40.9671 12.1156 40.8723 12.3445 40.7035 12.5133C40.5347 12.682 40.3058 12.7769 40.0671 12.7769H38.9811V27.3629C41.1381 28.3144 43.0458 29.7518 44.5551 31.5629C46.9829 32.1406 49.3205 33.047 51.5031 34.2569C54.5631 36.0569 56.0751 38.2769 55.9971 40.7789C56.0751 43.3469 54.5631 45.5549 51.5091 47.3609ZM50.5851 35.8169C49.2117 35.0334 47.7572 34.4017 46.2471 33.9329C46.4691 34.3109 46.6851 34.6949 46.8831 35.0969C47.4085 35.3144 47.9178 35.5691 48.4071 35.8589C50.2071 36.9329 51.0651 38.2289 51.0051 39.7049C51.0651 41.1749 50.1951 42.4709 48.4131 43.5449C48.0064 43.784 47.5857 43.9984 47.1531 44.1869C44.7671 45.2275 42.2496 45.9361 39.6711 46.2929C38.8791 46.4369 38.0811 46.5569 37.2711 46.6589L36.1731 46.7969L35.6151 46.8629H35.4891H35.3511L34.8291 46.9169L33.2451 47.0489H33.1551L32.5551 47.0909L31.2411 47.1569C31.152 47.1858 31.0588 47.2 30.9651 47.1989C30.9013 47.2047 30.837 47.2047 30.7731 47.1989L29.3271 47.2409C28.8864 47.3071 28.4407 47.3352 27.9951 47.3249C27.1131 47.3249 25.8351 47.2649 23.9871 47.1389H23.5251H23.4411C17.7351 46.8209 12.9531 45.9389 9.18513 44.3969C9.03865 44.334 8.91211 44.2323 8.81913 44.1029C8.45913 43.9349 8.11713 43.7549 7.81112 43.5749C6.01112 42.4949 5.14713 41.1749 5.21313 39.7289C5.15313 38.3669 5.90313 37.1669 7.41513 36.1289C7.41513 35.7029 7.41513 35.2889 7.48113 34.8869C6.84322 35.1664 6.22216 35.483 5.62112 35.8349C3.17312 37.2809 1.96112 38.9549 2.02112 40.8029V40.8569C1.96112 42.7109 3.17912 44.3789 5.62112 45.8309C15.2991 51.5429 40.9491 51.5429 50.6211 45.8309C53.0691 44.3849 54.2811 42.7109 54.2211 40.8089C54.2511 38.9369 53.0391 37.2629 50.5851 35.8169ZM37.8831 28.8449C34.8051 27.6449 31.6611 27.9389 29.4831 29.6909C29.9193 30.222 30.3202 30.7812 30.6831 31.3649C31.5764 30.7078 32.6252 30.2943 33.7265 30.165C34.8278 30.0356 35.9439 30.1948 36.9651 30.6269C40.2111 31.8269 44.2191 35.7449 45.2691 42.8669C45.9416 42.5929 46.5968 42.2784 47.2311 41.9249C45.9951 34.5389 41.6271 30.3029 37.8831 28.8449ZM37.1811 2.52886C37.1811 2.33631 37.1046 2.15165 36.9685 2.0155C36.8323 1.87935 36.6477 1.80286 36.4551 1.80286C36.2626 1.80286 36.0779 1.87935 35.9418 2.0155C35.8056 2.15165 35.7291 2.33631 35.7291 2.52886V26.4149C36.2185 26.4866 36.7034 26.5868 37.1811 26.7149V2.52886ZM29.2311 2.52886V27.6689C29.6906 27.386 30.1745 27.145 30.6771 26.9489V2.52886C30.6863 2.42838 30.6744 2.32709 30.6422 2.23146C30.6101 2.13583 30.5583 2.04795 30.4903 1.97343C30.4223 1.89892 30.3394 1.8394 30.2471 1.79868C30.1548 1.75796 30.055 1.73693 29.9541 1.73693C29.8532 1.73693 29.7534 1.75796 29.6611 1.79868C29.5688 1.8394 29.486 1.89892 29.418 1.97343C29.3499 2.04795 29.2982 2.13583 29.266 2.23146C29.2338 2.32709 29.222 2.42838 29.2311 2.52886ZM22.5891 7.66486L4.66713 6.69886C2.86713 6.69886 2.00312 7.53886 2.00312 8.31886C2.00312 9.09886 2.83113 9.92686 4.64312 9.93286L22.5891 8.96686C22.7668 8.96037 22.9427 9.00497 23.0958 9.09536C23.2489 9.18575 23.3729 9.31815 23.4531 9.47686C23.8671 10.3709 25.0671 12.2129 26.0811 12.2129H27.4311V4.41286H26.0811C25.0791 4.41286 23.8791 6.24886 23.4531 7.14286C23.3778 7.30627 23.2552 7.44335 23.1012 7.5364C22.9472 7.62944 22.7688 7.67419 22.5891 7.66486ZM13.6671 26.9489C9.85113 29.1149 8.41113 34.1969 9.62313 41.2709C9.77313 41.7629 9.95312 42.2549 10.1511 42.7349C11.1467 43.1701 12.1761 43.5232 13.2291 43.7909C12.6588 42.7698 12.2021 41.6894 11.8671 40.5689C10.8051 36.9689 11.0751 33.2069 12.5931 30.5429C13.0356 29.707 13.6462 28.9716 14.3866 28.3831C15.1269 27.7945 15.981 27.3655 16.8951 27.1229C20.4951 26.4089 23.9931 28.2149 26.4531 32.0789C26.5071 32.1629 26.5551 32.2529 26.6031 32.3369C27.4928 32.2615 28.3885 32.3039 29.2671 32.4629C28.5096 31.2509 27.5707 30.1622 26.4831 29.2349C22.5291 25.8449 17.2671 24.9029 13.6671 26.9489ZM36.3591 32.3489C34.5231 31.6709 32.8011 31.9049 31.6011 32.9849C31.6551 33.0929 31.6971 33.2009 31.7451 33.3029C32.5606 33.6945 33.3178 34.1973 33.9951 34.7969C34.7611 34.5934 35.5764 34.7012 36.2631 35.0969C38.7111 36.2969 41.1831 40.0949 41.4291 44.0969C42.1671 43.9169 42.8871 43.7309 43.5711 43.4969C42.6951 36.9029 39.1791 33.3689 36.3411 32.3189L36.3591 32.3489ZM18.4671 28.7609C18.0764 28.7616 17.6866 28.7998 17.3031 28.8749C16.6338 29.0652 16.0103 29.39 15.4707 29.8295C14.9312 30.269 14.4869 30.8139 14.1651 31.4309C12.8871 33.6809 12.6771 36.9089 13.6071 40.0649C13.9108 41.1089 14.3315 42.1153 14.8611 43.0649C15.2741 41.9988 15.7717 40.9675 16.3491 39.9809C16.2471 39.6689 16.1451 39.3809 16.0611 39.0209C15.1071 35.6549 15.3771 32.8889 16.8051 31.4369C17.1646 31.0559 17.6202 30.7789 18.1239 30.6353C18.6277 30.4917 19.1608 30.4867 19.6671 30.6209C20.8671 30.9389 21.9591 31.9049 22.8291 33.3869C23.4265 33.1014 24.0492 32.8724 24.6891 32.7029C23.6871 31.2269 21.5331 28.7609 18.4671 28.7609ZM18.1611 40.4129L18.1071 40.5029C17.3555 41.7274 16.7418 43.0313 16.2771 44.3909C16.9371 44.5169 17.6151 44.6309 18.3051 44.7389C20.1591 38.7389 25.0491 35.6489 28.7391 36.2189C30.0771 36.4289 34.2771 37.6949 34.1871 45.1529C34.8771 45.0989 35.5611 45.0389 36.2271 44.9669C36.2811 38.6129 32.9631 35.3669 29.7531 34.4249C25.4751 33.1889 20.9331 35.5409 18.1431 40.4129H18.1611ZM28.4571 38.0129C25.5771 37.5569 21.7251 40.0949 20.1051 44.9909C20.8191 45.0629 21.5451 45.1289 22.2831 45.1829C22.7391 42.3029 24.4671 40.2869 26.0331 39.6089C26.5176 39.3629 27.062 39.26 27.6029 39.312C28.1437 39.3641 28.6585 39.569 29.0871 39.9029C29.9211 40.5809 30.7431 42.0749 30.2871 45.3629C30.9951 45.3629 31.6971 45.3149 32.3871 45.2789C32.4351 41.1029 31.0011 38.3969 28.4391 38.0009L28.4571 38.0129ZM27.9711 41.2949C27.79 41.1859 27.5825 41.1283 27.3711 41.1283C27.1597 41.1283 26.9523 41.1859 26.7711 41.2949C25.6611 41.7809 24.4791 43.2749 24.0891 45.3149C24.5811 45.3149 25.0791 45.3629 25.5771 45.3749L26.0091 43.4309C26.0269 43.3082 26.0697 43.1906 26.135 43.0853C26.2003 42.98 26.2867 42.8893 26.3887 42.8189C26.4906 42.7486 26.606 42.7 26.7277 42.6763C26.8493 42.6526 26.9745 42.6542 27.0954 42.6812C27.2164 42.7081 27.3304 42.7597 27.4305 42.8328C27.5306 42.9058 27.6145 42.9987 27.677 43.1057C27.7395 43.2127 27.7792 43.3315 27.7937 43.4545C27.8082 43.5776 27.7971 43.7023 27.7611 43.8209L27.4131 45.4109H28.4391C28.8291 42.9989 28.4631 41.7029 27.9531 41.2829L27.9711 41.2949ZM38.0091 44.7329C38.5671 44.6429 39.1131 44.5529 39.6351 44.4569C39.5451 41.0009 37.4991 38.0009 35.8131 36.8969C37.2802 39.2448 38.0424 41.9645 38.0091 44.7329ZM19.2171 32.3609C19.1076 32.3307 18.9947 32.3145 18.8811 32.3129C18.7286 32.314 18.578 32.3466 18.4386 32.4085C18.2993 32.4704 18.1742 32.5604 18.0711 32.6729C17.3871 33.3689 16.9551 35.0729 17.6271 37.9049C18.0165 37.3685 18.4373 36.8556 18.8871 36.3689L18.2391 34.8569C18.1452 34.6373 18.1424 34.3894 18.2313 34.1677C18.3202 33.946 18.4935 33.7687 18.7131 33.6749C18.9327 33.581 19.1806 33.5782 19.4023 33.6671C19.624 33.756 19.8012 33.9293 19.8951 34.1489L20.2671 35.0489C20.5971 34.7729 20.9331 34.5269 21.2751 34.2929C20.5971 33.1229 19.8351 32.5229 19.2171 32.3609ZM48.8151 40.6229C49.1211 40.0229 49.0791 39.1889 48.1131 38.0369C48.3944 38.8853 48.6288 39.7486 48.8151 40.6229ZM7.48113 38.8709C7.24782 39.2276 7.14871 39.6557 7.20145 40.0787C7.25419 40.5017 7.45535 40.8923 7.76912 41.1809C7.66713 40.3769 7.54113 39.6029 7.48113 38.8709ZM32.4771 2.52886V26.4509C32.9577 26.3743 33.4427 26.3282 33.9291 26.3129V2.52886C33.9291 2.33631 33.8526 2.15165 33.7165 2.0155C33.5803 1.87935 33.3957 1.80286 33.2031 1.80286C33.0106 1.80286 32.8259 1.87935 32.6898 2.0155C32.5536 2.15165 32.4771 2.33631 32.4771 2.52886ZM45.6771 50.4449C46.1758 50.1084 46.6473 49.7333 47.0871 49.3229C41.8671 51.0569 34.9971 51.9029 28.0671 51.9029C21.1371 51.9029 14.2671 51.0329 9.11313 49.3049C9.55371 49.7187 10.0273 50.0959 10.5291 50.4329C18.6111 55.9289 37.6371 55.9289 45.6651 50.4449H45.6771Z"/>
</mask>
<path d="M51.5091 47.3609C51.1251 47.5889 50.7171 47.8049 50.3091 48.0149C49.4617 49.6056 48.2227 50.9541 46.7091 51.9329C42.3771 54.8909 35.2611 56.3729 28.1091 56.3729C20.9571 56.3729 13.8891 54.9029 9.54512 51.9449C8.03013 50.9653 6.79086 49.6145 5.94513 48.0209C5.51912 47.8109 5.10513 47.5949 4.74512 47.3669C1.69712 45.5669 0.185127 43.3649 0.251125 40.8149C0.179127 38.2769 1.69113 36.0689 4.73313 34.2689C5.71643 33.7014 6.74374 33.2138 7.80513 32.8109C8.71113 28.4609 11.0871 26.3609 12.8151 25.3829C17.0151 22.9829 23.0151 23.9669 27.4851 27.6929V14.0129H26.1351C24.2151 14.0129 22.7631 11.8589 22.1631 10.7969L4.76313 11.7329H4.66713C1.73912 11.7329 0.203125 10.0169 0.203125 8.31886C0.203125 6.62086 1.73312 4.89886 4.70913 4.89886L22.1091 5.84086C22.7091 4.77286 24.1611 2.62486 26.0811 2.62486H27.4311V2.52886C27.4271 2.04679 27.5621 1.57378 27.82 1.16646C28.0779 0.759144 28.4477 0.434774 28.8851 0.232191C29.3226 0.0296073 29.8091 -0.0426056 30.2866 0.0241977C30.764 0.091001 31.2121 0.29399 31.5771 0.608861C32.0286 0.217911 32.6059 0.00272659 33.2031 0.00272659C33.8004 0.00272659 34.3776 0.217911 34.8291 0.608861C35.2846 0.216666 35.8661 0.00155083 36.4671 0.00286077C37.1366 0.00444527 37.7782 0.271086 38.2515 0.744459C38.7249 1.21783 38.9915 1.85941 38.9931 2.52886V3.86086H40.0671C40.3058 3.86086 40.5347 3.95568 40.7035 4.12446C40.8723 4.29325 40.9671 4.52217 40.9671 4.76086C40.9671 4.99956 40.8723 5.22847 40.7035 5.39726C40.5347 5.56604 40.3058 5.66086 40.0671 5.66086H38.9811V7.41886H40.0671C40.3058 7.41886 40.5347 7.51368 40.7035 7.68247C40.8723 7.85125 40.9671 8.08017 40.9671 8.31886C40.9671 8.55756 40.8723 8.78647 40.7035 8.95526C40.5347 9.12404 40.3058 9.21886 40.0671 9.21886H38.9811V10.9769H40.0671C40.3058 10.9769 40.5347 11.0717 40.7035 11.2405C40.8723 11.4092 40.9671 11.6382 40.9671 11.8769C40.9671 12.1156 40.8723 12.3445 40.7035 12.5133C40.5347 12.682 40.3058 12.7769 40.0671 12.7769H38.9811V27.3629C41.1381 28.3144 43.0458 29.7518 44.5551 31.5629C46.9829 32.1406 49.3205 33.047 51.5031 34.2569C54.5631 36.0569 56.0751 38.2769 55.9971 40.7789C56.0751 43.3469 54.5631 45.5549 51.5091 47.3609ZM50.5851 35.8169C49.2117 35.0334 47.7572 34.4017 46.2471 33.9329C46.4691 34.3109 46.6851 34.6949 46.8831 35.0969C47.4085 35.3144 47.9178 35.5691 48.4071 35.8589C50.2071 36.9329 51.0651 38.2289 51.0051 39.7049C51.0651 41.1749 50.1951 42.4709 48.4131 43.5449C48.0064 43.784 47.5857 43.9984 47.1531 44.1869C44.7671 45.2275 42.2496 45.9361 39.6711 46.2929C38.8791 46.4369 38.0811 46.5569 37.2711 46.6589L36.1731 46.7969L35.6151 46.8629H35.4891H35.3511L34.8291 46.9169L33.2451 47.0489H33.1551L32.5551 47.0909L31.2411 47.1569C31.152 47.1858 31.0588 47.2 30.9651 47.1989C30.9013 47.2047 30.837 47.2047 30.7731 47.1989L29.3271 47.2409C28.8864 47.3071 28.4407 47.3352 27.9951 47.3249C27.1131 47.3249 25.8351 47.2649 23.9871 47.1389H23.5251H23.4411C17.7351 46.8209 12.9531 45.9389 9.18513 44.3969C9.03865 44.334 8.91211 44.2323 8.81913 44.1029C8.45913 43.9349 8.11713 43.7549 7.81112 43.5749C6.01112 42.4949 5.14713 41.1749 5.21313 39.7289C5.15313 38.3669 5.90313 37.1669 7.41513 36.1289C7.41513 35.7029 7.41513 35.2889 7.48113 34.8869C6.84322 35.1664 6.22216 35.483 5.62112 35.8349C3.17312 37.2809 1.96112 38.9549 2.02112 40.8029V40.8569C1.96112 42.7109 3.17912 44.3789 5.62112 45.8309C15.2991 51.5429 40.9491 51.5429 50.6211 45.8309C53.0691 44.3849 54.2811 42.7109 54.2211 40.8089C54.2511 38.9369 53.0391 37.2629 50.5851 35.8169ZM37.8831 28.8449C34.8051 27.6449 31.6611 27.9389 29.4831 29.6909C29.9193 30.222 30.3202 30.7812 30.6831 31.3649C31.5764 30.7078 32.6252 30.2943 33.7265 30.165C34.8278 30.0356 35.9439 30.1948 36.9651 30.6269C40.2111 31.8269 44.2191 35.7449 45.2691 42.8669C45.9416 42.5929 46.5968 42.2784 47.2311 41.9249C45.9951 34.5389 41.6271 30.3029 37.8831 28.8449ZM37.1811 2.52886C37.1811 2.33631 37.1046 2.15165 36.9685 2.0155C36.8323 1.87935 36.6477 1.80286 36.4551 1.80286C36.2626 1.80286 36.0779 1.87935 35.9418 2.0155C35.8056 2.15165 35.7291 2.33631 35.7291 2.52886V26.4149C36.2185 26.4866 36.7034 26.5868 37.1811 26.7149V2.52886ZM29.2311 2.52886V27.6689C29.6906 27.386 30.1745 27.145 30.6771 26.9489V2.52886C30.6863 2.42838 30.6744 2.32709 30.6422 2.23146C30.6101 2.13583 30.5583 2.04795 30.4903 1.97343C30.4223 1.89892 30.3394 1.8394 30.2471 1.79868C30.1548 1.75796 30.055 1.73693 29.9541 1.73693C29.8532 1.73693 29.7534 1.75796 29.6611 1.79868C29.5688 1.8394 29.486 1.89892 29.418 1.97343C29.3499 2.04795 29.2982 2.13583 29.266 2.23146C29.2338 2.32709 29.222 2.42838 29.2311 2.52886ZM22.5891 7.66486L4.66713 6.69886C2.86713 6.69886 2.00312 7.53886 2.00312 8.31886C2.00312 9.09886 2.83113 9.92686 4.64312 9.93286L22.5891 8.96686C22.7668 8.96037 22.9427 9.00497 23.0958 9.09536C23.2489 9.18575 23.3729 9.31815 23.4531 9.47686C23.8671 10.3709 25.0671 12.2129 26.0811 12.2129H27.4311V4.41286H26.0811C25.0791 4.41286 23.8791 6.24886 23.4531 7.14286C23.3778 7.30627 23.2552 7.44335 23.1012 7.5364C22.9472 7.62944 22.7688 7.67419 22.5891 7.66486ZM13.6671 26.9489C9.85113 29.1149 8.41113 34.1969 9.62313 41.2709C9.77313 41.7629 9.95312 42.2549 10.1511 42.7349C11.1467 43.1701 12.1761 43.5232 13.2291 43.7909C12.6588 42.7698 12.2021 41.6894 11.8671 40.5689C10.8051 36.9689 11.0751 33.2069 12.5931 30.5429C13.0356 29.707 13.6462 28.9716 14.3866 28.3831C15.1269 27.7945 15.981 27.3655 16.8951 27.1229C20.4951 26.4089 23.9931 28.2149 26.4531 32.0789C26.5071 32.1629 26.5551 32.2529 26.6031 32.3369C27.4928 32.2615 28.3885 32.3039 29.2671 32.4629C28.5096 31.2509 27.5707 30.1622 26.4831 29.2349C22.5291 25.8449 17.2671 24.9029 13.6671 26.9489ZM36.3591 32.3489C34.5231 31.6709 32.8011 31.9049 31.6011 32.9849C31.6551 33.0929 31.6971 33.2009 31.7451 33.3029C32.5606 33.6945 33.3178 34.1973 33.9951 34.7969C34.7611 34.5934 35.5764 34.7012 36.2631 35.0969C38.7111 36.2969 41.1831 40.0949 41.4291 44.0969C42.1671 43.9169 42.8871 43.7309 43.5711 43.4969C42.6951 36.9029 39.1791 33.3689 36.3411 32.3189L36.3591 32.3489ZM18.4671 28.7609C18.0764 28.7616 17.6866 28.7998 17.3031 28.8749C16.6338 29.0652 16.0103 29.39 15.4707 29.8295C14.9312 30.269 14.4869 30.8139 14.1651 31.4309C12.8871 33.6809 12.6771 36.9089 13.6071 40.0649C13.9108 41.1089 14.3315 42.1153 14.8611 43.0649C15.2741 41.9988 15.7717 40.9675 16.3491 39.9809C16.2471 39.6689 16.1451 39.3809 16.0611 39.0209C15.1071 35.6549 15.3771 32.8889 16.8051 31.4369C17.1646 31.0559 17.6202 30.7789 18.1239 30.6353C18.6277 30.4917 19.1608 30.4867 19.6671 30.6209C20.8671 30.9389 21.9591 31.9049 22.8291 33.3869C23.4265 33.1014 24.0492 32.8724 24.6891 32.7029C23.6871 31.2269 21.5331 28.7609 18.4671 28.7609ZM18.1611 40.4129L18.1071 40.5029C17.3555 41.7274 16.7418 43.0313 16.2771 44.3909C16.9371 44.5169 17.6151 44.6309 18.3051 44.7389C20.1591 38.7389 25.0491 35.6489 28.7391 36.2189C30.0771 36.4289 34.2771 37.6949 34.1871 45.1529C34.8771 45.0989 35.5611 45.0389 36.2271 44.9669C36.2811 38.6129 32.9631 35.3669 29.7531 34.4249C25.4751 33.1889 20.9331 35.5409 18.1431 40.4129H18.1611ZM28.4571 38.0129C25.5771 37.5569 21.7251 40.0949 20.1051 44.9909C20.8191 45.0629 21.5451 45.1289 22.2831 45.1829C22.7391 42.3029 24.4671 40.2869 26.0331 39.6089C26.5176 39.3629 27.062 39.26 27.6029 39.312C28.1437 39.3641 28.6585 39.569 29.0871 39.9029C29.9211 40.5809 30.7431 42.0749 30.2871 45.3629C30.9951 45.3629 31.6971 45.3149 32.3871 45.2789C32.4351 41.1029 31.0011 38.3969 28.4391 38.0009L28.4571 38.0129ZM27.9711 41.2949C27.79 41.1859 27.5825 41.1283 27.3711 41.1283C27.1597 41.1283 26.9523 41.1859 26.7711 41.2949C25.6611 41.7809 24.4791 43.2749 24.0891 45.3149C24.5811 45.3149 25.0791 45.3629 25.5771 45.3749L26.0091 43.4309C26.0269 43.3082 26.0697 43.1906 26.135 43.0853C26.2003 42.98 26.2867 42.8893 26.3887 42.8189C26.4906 42.7486 26.606 42.7 26.7277 42.6763C26.8493 42.6526 26.9745 42.6542 27.0954 42.6812C27.2164 42.7081 27.3304 42.7597 27.4305 42.8328C27.5306 42.9058 27.6145 42.9987 27.677 43.1057C27.7395 43.2127 27.7792 43.3315 27.7937 43.4545C27.8082 43.5776 27.7971 43.7023 27.7611 43.8209L27.4131 45.4109H28.4391C28.8291 42.9989 28.4631 41.7029 27.9531 41.2829L27.9711 41.2949ZM38.0091 44.7329C38.5671 44.6429 39.1131 44.5529 39.6351 44.4569C39.5451 41.0009 37.4991 38.0009 35.8131 36.8969C37.2802 39.2448 38.0424 41.9645 38.0091 44.7329ZM19.2171 32.3609C19.1076 32.3307 18.9947 32.3145 18.8811 32.3129C18.7286 32.314 18.578 32.3466 18.4386 32.4085C18.2993 32.4704 18.1742 32.5604 18.0711 32.6729C17.3871 33.3689 16.9551 35.0729 17.6271 37.9049C18.0165 37.3685 18.4373 36.8556 18.8871 36.3689L18.2391 34.8569C18.1452 34.6373 18.1424 34.3894 18.2313 34.1677C18.3202 33.946 18.4935 33.7687 18.7131 33.6749C18.9327 33.581 19.1806 33.5782 19.4023 33.6671C19.624 33.756 19.8012 33.9293 19.8951 34.1489L20.2671 35.0489C20.5971 34.7729 20.9331 34.5269 21.2751 34.2929C20.5971 33.1229 19.8351 32.5229 19.2171 32.3609ZM48.8151 40.6229C49.1211 40.0229 49.0791 39.1889 48.1131 38.0369C48.3944 38.8853 48.6288 39.7486 48.8151 40.6229ZM7.48113 38.8709C7.24782 39.2276 7.14871 39.6557 7.20145 40.0787C7.25419 40.5017 7.45535 40.8923 7.76912 41.1809C7.66713 40.3769 7.54113 39.6029 7.48113 38.8709ZM32.4771 2.52886V26.4509C32.9577 26.3743 33.4427 26.3282 33.9291 26.3129V2.52886C33.9291 2.33631 33.8526 2.15165 33.7165 2.0155C33.5803 1.87935 33.3957 1.80286 33.2031 1.80286C33.0106 1.80286 32.8259 1.87935 32.6898 2.0155C32.5536 2.15165 32.4771 2.33631 32.4771 2.52886ZM45.6771 50.4449C46.1758 50.1084 46.6473 49.7333 47.0871 49.3229C41.8671 51.0569 34.9971 51.9029 28.0671 51.9029C21.1371 51.9029 14.2671 51.0329 9.11313 49.3049C9.55371 49.7187 10.0273 50.0959 10.5291 50.4329C18.6111 55.9289 37.6371 55.9289 45.6651 50.4449H45.6771Z" fill="black" stroke="#FBF4E1" stroke-width="0.2" mask="url(#path-1-inside-1_222_453)"/>
</g>
<defs>
<clipPath id="clip0_222_453">
<rect width="40.8" height="24" fill="white" transform="matrix(-1 0 0 1 41 0)"/>
</clipPath>
</defs>
</svg>
