<svg width="683" height="944" viewBox="0 0 683 944" fill="none" xmlns="http://www.w3.org/2000/svg">
<path d="M69.4727 465.746C67.4727 495.746 37.806 668.578 26.4727 725.745L664.973 699.246C655.373 666.446 638.973 549.579 631.973 495.246C620.973 400.079 606.773 226.146 573.973 153.746C541.173 81.3461 511.473 33.7461 432.973 26.746C411.973 13.7451 343.973 -10.754 278.973 5.2456C48.9727 57.246 71.9727 428.246 69.4727 465.746Z" fill="#101111"/>
<path d="M580.473 312.746C572.073 300.746 548.639 304.746 537.973 308.246L520.473 425.246C521.306 427.413 526.673 431.946 541.473 432.746C556.273 433.546 573.639 398.413 580.473 380.746C583.973 363.079 588.873 324.746 580.473 312.746Z" fill="url(#paint0_radial_421_6451)"/>
<path d="M246.973 613.246C261.22 608.553 257.306 563.579 254.973 544.746C296.473 530.079 391.473 510.046 439.473 547.246C437.973 621.746 456.973 616.246 465.973 618.246C474.973 620.246 555.43 627.789 623.973 656.5C700.973 688.754 670.806 836 673.973 896C673.973 896 538.973 941 338.973 936C138.973 931 5.47266 890.5 5.47266 890.5C5.47266 751 5.47266 696.5 74.9727 654.246C110.473 636.246 204.473 627.246 246.973 613.246Z" fill="#FDC09C"/>
<path d="M74.9727 654.246C110.473 636.246 204.473 627.246 246.973 613.246C252.767 611.337 255.557 602.766 256.672 592C258.298 576.295 256.357 555.92 254.973 544.746C296.473 530.079 391.473 510.046 439.473 547.246C437.973 621.746 456.973 616.246 465.973 618.246C474.973 620.246 555.43 627.789 623.973 656.5C700.973 688.754 670.806 836 673.973 896C673.973 896 538.973 941 338.973 936C138.973 931 5.47266 890.5 5.47266 890.5C5.47266 751 5.47266 696.5 74.9727 654.246Z" fill="#FDC09C"/>
<path d="M9.87371e-05 940C9.87371e-05 771.5 0.503906 696.754 70.0039 654.5C96.1763 641.229 159.113 632.597 204.8 623.5C216.99 613.833 244.43 594 256.671 592C256.206 596.49 255.45 600.598 254.306 604C252.707 608.756 250.35 612.133 246.972 613.246C244.329 614.117 241.486 614.968 238.472 615.803C233.972 681 282.172 810.4 316.972 896L368.472 894.5C399.305 827.667 458.372 679.9 447.972 623.5C446.124 613.481 444.882 604.379 442.593 594C449.089 599.2 474.219 614.299 485.972 621.198C515.945 625.589 574.529 633 624.5 655.5C707.786 693 677.124 881 677.124 943C677.124 943 583.625 944.571 340.472 939.5C104.023 934.569 9.87371e-05 940 9.87371e-05 940Z" fill="#771E1D"/>
<path d="M485.973 621C496.806 636.167 520.073 674 526.473 704C514.473 704 484.806 718.5 482.973 725C491.973 726.833 512.173 734.2 520.973 749C502.473 779.5 447.473 880.5 446.473 896.5" stroke="#571012" stroke-width="8" stroke-linejoin="round"/>
<path d="M181.473 628C179.306 653.333 173.573 704.9 167.973 708.5C187.973 715.3 199.973 721.667 203.473 724L167.973 746.5C185.639 783.333 229.673 866.6 264.473 905" stroke="#571012" stroke-width="8" stroke-linejoin="round"/>
<path d="M246.973 613.246C261.22 608.553 257.306 563.579 254.973 544.746C296.473 530.079 391.473 510.046 439.473 547.246C437.973 621.746 456.973 616.246 465.973 618.246C462.973 619.579 450.473 627.346 424.473 647.746C391.973 673.246 318.973 673.246 288.973 660.246C264.973 649.846 250.973 624.579 246.973 613.246Z" fill="#F4AA83"/>
<path d="M113.473 312.746C121.873 300.746 145.306 304.746 155.973 308.246L173.473 425.246C172.639 427.413 167.273 431.946 152.473 432.746C137.673 433.546 120.306 398.413 113.473 380.746C109.973 363.079 105.073 324.746 113.473 312.746Z" fill="url(#paint1_radial_421_6451)"/>
<path d="M542.473 331.746C542.473 479.746 436.973 588.746 348.973 588.746C252.973 588.746 155.473 473.683 155.473 331.746C155.473 189.809 242.106 74.7461 348.973 74.7461C455.84 74.7461 542.473 189.809 542.473 331.746Z" fill="#FEC6A2"/>
<path d="M490.473 255.242C460.764 233.117 418.727 246.023 399.375 255.242C396.759 256.487 390.482 260.982 393.097 267.243C394.738 271.173 400.768 269.678 404.081 268.287C408.684 265.782 417.157 262.547 429.187 260.982C445.401 258.872 471.719 261.369 477.473 264.5C483.226 267.631 494.334 272.848 497.473 270.5C499.565 268.935 498.473 261.199 490.473 255.242Z" fill="#121516"/>
<ellipse cx="540.473" cy="422.746" rx="14" ry="20" fill="#FEF0DE"/>
<ellipse cx="14" cy="20" rx="14" ry="20" transform="matrix(-1 0 0 1 167.109 402.746)" fill="#FEF0DE"/>
<ellipse cx="541.473" cy="463.746" rx="16" ry="21" fill="#FEF0DE"/>
<ellipse cx="16" cy="21" rx="16" ry="21" transform="matrix(-1 0 0 1 168.109 442.746)" fill="#FEF0DE"/>
<path d="M332.973 418.625C325.373 415.425 319.806 418.125 318.473 418.625C316.35 419.421 314.831 422.943 315.973 425.625C318.474 431.5 324.514 436.125 330.014 437.625C339.514 440.216 357.473 440 365.973 436.5C376.373 433.3 376.68 424.958 375.513 421.624C373.513 417.624 366.514 419.125 364.014 420.125C361.514 421.124 339.973 421.572 332.973 418.625Z" fill="#EB9A73"/>
<path d="M287.47 262.5C281.645 259.992 268.985 254.894 259.97 253.5C240.207 249.977 211.971 257.5 203.471 267.5C195.295 277.119 205.589 282.124 208.709 278.986C211.649 276.029 223.368 268.535 238.97 266.967C251.452 265.713 273.428 271.035 280.709 274.519C284.871 276.51 292.671 281.835 297.351 276.086C302.007 270.366 294.751 265.636 287.47 262.5Z" fill="#121516"/>
<g filter="url(#filter0_i_421_6451)">
<path d="M385.473 481.5C378.49 478.468 371.279 477.184 360.473 475.5C336.782 471.241 305.883 475.395 295.694 487.482C285.893 499.109 298.233 505.159 301.973 501.366C305.497 497.791 317.77 494.895 336.473 493C351.435 491.484 365.473 493 377.368 496.027C382.736 497.394 392.973 502.5 397.317 497.922C401.038 494 394.2 485.29 385.473 481.5Z" fill="#B43A2B"/>
</g>
<path d="M523.973 269.5C509.573 208.3 432.639 146.167 399.973 123.5C383.973 149.5 343.473 173 304.473 194.5C265.473 216 200.473 233.246 168.973 280.746C147.353 313.347 154.973 358.746 152.973 349.746C151.373 342.546 134.639 317.079 126.473 305.246L183.473 74.2461L486.473 66.7461C514.806 145.913 569.773 304.246 562.973 304.246C556.173 304.246 543.473 341.246 537.973 359.746L523.973 269.5Z" fill="#101111"/>
<path d="M245.474 613.746C245.474 621.478 239.653 627.746 232.474 627.746C225.294 627.746 217.474 621.246 219.474 613.746C221.474 606.246 227.295 599.746 234.475 599.746C241.654 599.746 245.474 606.014 245.474 613.746Z" fill="#FDF2E2"/>
<path d="M468.018 599.686C476.118 601.73 481.146 609.484 479.248 617.006C477.35 624.527 468.474 631.002 461.145 626.924C453.817 622.846 448.546 615.029 450.444 607.508C452.342 599.986 459.918 597.642 468.018 599.686Z" fill="#FDF2E2"/>
<path d="M282.633 680.58C289.96 685.126 292.477 694.328 288.255 701.131C284.033 707.935 273.275 711.523 267.344 705.218C261.413 698.912 258.677 689.574 262.898 682.77C267.12 675.966 275.306 676.033 282.633 680.58Z" fill="#FDF2E2"/>
<path d="M313.333 705.272C315.08 712.668 310.179 720.156 302.386 721.996C294.593 723.836 284.636 719.623 285.113 711.936C285.589 704.25 290.439 696.54 298.232 694.699C306.025 692.859 311.586 697.876 313.333 705.272Z" fill="#FDF2E2"/>
<path d="M326.77 701.418C334.307 698.815 342.661 703.202 345.429 711.216C348.196 719.231 344.874 730.148 336.791 730.44C328.709 730.733 320.129 726.423 317.361 718.409C314.594 710.394 319.232 704.021 326.77 701.418Z" fill="#FDF2E2"/>
<path d="M359.899 703.712C367.437 701.109 375.619 704.998 378.174 712.397C380.729 719.797 377.176 730.045 369.152 730.509C361.129 730.972 352.721 727.161 350.165 719.761C347.61 712.361 352.361 706.315 359.899 703.712Z" fill="#FDF2E2"/>
<path d="M390.961 694.859C399.139 692.035 407.84 695.745 410.395 703.144C412.95 710.544 408.859 720.978 400.214 721.656C391.57 722.334 382.623 718.709 380.068 711.309C377.513 703.909 382.783 697.683 390.961 694.859Z" fill="#FDF2E2"/>
<path d="M419.573 679.448C427.618 676.67 436.144 680.223 438.617 687.384C441.09 694.545 437.02 704.68 428.528 705.38C420.035 706.08 411.267 702.609 408.795 695.448C406.322 688.287 411.528 682.226 419.573 679.448Z" fill="#FDF2E2"/>
<path d="M456.423 665.991C457.668 674.41 452.773 682.109 445.49 683.186C438.208 684.263 429.228 678.358 430.049 669.891C430.87 661.424 435.728 653.473 443.011 652.395C450.294 651.318 455.178 657.571 456.423 665.991Z" fill="#FDF2E2"/>
<path d="M251.342 641.489C254.139 648.202 249.849 656.801 241.918 658.086C233.988 659.37 226.517 653.983 225.233 646.053C223.948 638.122 229.335 630.652 237.266 629.367C245.196 628.082 248.544 634.775 251.342 641.489Z" fill="#FDF2E2"/>
<path d="M470.035 635.994C474.271 641.907 472.024 651.25 464.586 654.285C457.147 657.32 448.657 653.751 445.621 646.313C442.586 638.875 446.155 630.384 453.593 627.348C461.032 624.313 465.799 630.081 470.035 635.994Z" fill="#FDF2E2"/>
<path d="M262.606 662.51C268.025 667.361 267.863 676.969 261.262 681.549C254.661 686.128 245.597 684.489 241.018 677.888C236.439 671.287 238.078 662.223 244.679 657.644C251.28 653.065 257.187 657.659 262.606 662.51Z" fill="#FDF2E2"/>
<path d="M572.098 748C567.146 762.292 563.059 793.556 559.098 830" stroke="#571012" stroke-width="9" stroke-linecap="round"/>
<path d="M108.469 750.746C113.923 765.028 120.469 805.11 126.469 829.746" stroke="#571012" stroke-width="9" stroke-linecap="round"/>
<path d="M287.013 290.567C244.03 273.794 186.491 284.979 162.221 293.161C155.069 294.458 147.475 311.5 151.821 318.436C156.168 325.373 162.221 326.999 162.221 334C164.475 396 188.103 418 253.475 418C284.004 418 310.945 396.5 317.975 381.5L329.458 349.7C330.965 345.609 336.588 337.325 347.033 336.916C357.477 336.507 363.101 345.268 364.607 349.7C365.044 350.985 365.109 356.552 373.144 377.825C384.391 411.37 415.914 419.477 430.308 420.5H460.475C511.629 422.09 526.475 375.5 532.475 334.5C532.965 331.673 535.302 331.118 540.975 328C545.302 325.621 548.975 307.645 534.975 300C500.328 281.078 432.975 284 412.455 290.567C399.654 294.664 374.864 301.088 365.658 308.076C353.309 315.858 335.11 313.578 329.458 310.325C317.909 303.677 306.596 298.209 287.013 290.567Z" fill="#191818"/>
<path d="M506.973 307C447.622 287.221 402.777 304.766 388.526 313.875C377.209 322.334 375.323 343.153 383.496 367.226C391.67 391.299 397.645 402.097 452.973 406C497.234 409.123 514.689 359.853 518.042 333.394C519.299 328.406 520.05 312.726 506.973 307Z" fill="#FEC7A7"/>
<path d="M288.388 307.718C264.557 294.697 216.899 300.462 197.471 303.5C165.471 313 179.472 356.5 182.471 366C185.471 375.5 192.998 401.635 242.972 405.5C293.484 409.406 311.46 368.305 312.971 344C313.748 331.5 304.578 314.229 288.388 307.718Z" fill="#FEC7A7"/>
<path d="M527.973 841C517.173 845.4 493.806 883.127 483.473 901.441C514.164 903.895 544.88 908.331 569.473 915.832C583.615 920.04 595.355 911.742 607.473 907C620.273 907 627.473 901.666 629.473 899C651.973 897 644.306 879.5 638.973 873C628.473 861.5 603.973 845 569.473 845C585.973 834.5 618.973 844.5 624.973 843.5C630.973 842.5 631.973 834 627.973 827C623.973 820 607.473 817 588.473 816.5C569.473 816 541.473 835.5 527.973 841Z" fill="#FEC4A1"/>
<path d="M276.973 331.687C271.884 329.482 265.662 327.613 252.972 326.001C240.282 324.388 215.4 322.896 207.974 331.687C200.831 340.143 208.974 347.5 215.974 344.5C222.974 341.5 265.035 345.901 271.473 349.001C275.109 350.751 283.385 354.054 287.473 349.001C291.541 343.972 283.334 334.443 276.973 331.687Z" fill="#121516"/>
<path d="M477.489 315.033C472.147 313.542 465.728 312.54 452.937 312.672C440.145 312.805 415.292 314.721 409.134 324.442C403.211 333.793 415.484 338.044 418.807 336.045C425.333 332.118 467.601 330.742 474.402 332.935C478.242 334.173 486.891 336.317 490.252 330.753C493.597 325.216 484.167 316.896 477.489 315.033Z" fill="#121516"/>
<path d="M563.473 896C572.473 894 592.373 891.9 605.973 905.5" stroke="#F4AA83" stroke-width="4" stroke-linecap="round"/>
<path d="M368.472 894.5L316.972 896C303.033 861.714 286.944 820.4 272.953 779C300.453 792.5 360.971 815 415.462 779C399.686 823.294 381.542 866.169 368.472 894.5Z" fill="#101110"/>
<path d="M140.973 919C171.677 914.553 209.528 910.564 243.473 907.448C220.473 887.132 172.973 847.5 162.973 840.5C152.346 833.062 150.473 829 127.473 828C113.973 827.334 85.3726 827.2 78.9726 832C70.9726 838 71.9726 847 78.9726 853C70.4731 854.5 69.4722 859 70.4722 863.5C70.8057 865.667 72.9726 870.6 78.9726 873C73.9727 876 73.924 890.46 82.9727 892C106.473 896 136.473 919 140.973 919Z" fill="#FEC4A1"/>
<path d="M80.9727 873C95.6393 870.833 127.273 872.4 144.473 896" stroke="#F4AA83" stroke-width="4" stroke-linecap="round"/>
<path d="M80.4727 852C87.806 844 131.473 844.5 155.973 868.001" stroke="#F4AA83" stroke-width="4" stroke-linecap="round"/>
<path d="M551.973 879C567.306 871.5 602.773 863.5 627.973 897.5" stroke="#F4AA83" stroke-width="4" stroke-linecap="round"/>
<ellipse cx="259.973" cy="353.5" rx="20.5" ry="21.5" fill="#131515"/>
<path d="M470.973 346.5C470.973 360.583 459.175 373 446.473 373C433.77 373 423.473 361.583 423.473 347.5C423.473 333.417 433.77 322 446.473 322C467.973 322 470.973 332.417 470.973 346.5Z" fill="#131515"/>
<path d="M140.973 919C198.973 910.6 282.473 903.833 316.973 901.5L368.473 900C413.973 897.333 519.773 897.4 578.973 919" stroke="#571012" stroke-width="8" stroke-linecap="round"/>
<defs>
<filter id="filter0_i_421_6451" x="291.992" y="473.875" width="106.363" height="28.6191" filterUnits="userSpaceOnUse" color-interpolation-filters="sRGB">
<feFlood flood-opacity="0" result="BackgroundImageFix"/>
<feBlend mode="normal" in="SourceGraphic" in2="BackgroundImageFix" result="shape"/>
<feColorMatrix in="SourceAlpha" type="matrix" values="0 0 0 0 0 0 0 0 0 0 0 0 0 0 0 0 0 0 127 0" result="hardAlpha"/>
<feOffset/>
<feGaussianBlur stdDeviation="5"/>
<feComposite in2="hardAlpha" operator="arithmetic" k2="-1" k3="1"/>
<feColorMatrix type="matrix" values="0 0 0 0 0.458824 0 0 0 0 0.00392157 0 0 0 0 0.00392157 0 0 0 1 0"/>
<feBlend mode="normal" in2="shape" result="effect1_innerShadow_421_6451"/>
</filter>
<radialGradient id="paint0_radial_421_6451" cx="0" cy="0" r="1" gradientUnits="userSpaceOnUse" gradientTransform="translate(530.973 354.246) rotate(44.5692) scale(47.0239 62.8411)">
<stop stop-color="#EFA17A"/>
<stop offset="0.740432" stop-color="#EFA57D"/>
<stop offset="1" stop-color="#FDC4A2"/>
</radialGradient>
<radialGradient id="paint1_radial_421_6451" cx="0" cy="0" r="1" gradientUnits="userSpaceOnUse" gradientTransform="translate(162.973 354.246) rotate(135.431) scale(47.0239 62.8411)">
<stop stop-color="#EFA17A"/>
<stop offset="0.740432" stop-color="#EFA57D"/>
<stop offset="1" stop-color="#FDC4A2"/>
</radialGradient>
</defs>
</svg>
