<svg width="712" height="860" viewBox="0 0 712 860" fill="none" xmlns="http://www.w3.org/2000/svg">
<path d="M77 465.746C75 495.746 45.3333 668.578 34 725.745L672.5 699.246C662.9 666.446 646.5 549.579 639.5 495.246C628.5 400.079 614.3 226.146 581.5 153.746C548.7 81.3461 519 33.7461 440.5 26.746C419.5 13.7451 351.5 -10.754 286.5 5.2456C56.5 57.246 79.5 428.246 77 465.746Z" fill="#101111"/>
<path d="M591 310.746C582.6 298.746 559.167 302.746 548.5 306.246L531 423.246C531.833 425.413 537.2 429.946 552 430.746C566.8 431.546 584.167 396.413 591 378.746C594.5 361.079 599.4 322.746 591 310.746Z" fill="url(#paint0_radial_233_684)"/>
<path d="M254.5 613.246C268.747 608.553 264.833 563.579 262.5 544.746C304 530.079 399 510.046 447 547.246C445.5 621.746 464.5 616.246 473.5 618.246C482.5 620.246 561.5 628.246 632 651.746C688.4 670.546 708.833 795.246 712 855.246H0C16.4 713.646 55 665.246 82.5 654.246C118 636.246 212 627.246 254.5 613.246Z" fill="#FDC09C"/>
<path d="M254.5 613.246C268.747 608.553 264.833 563.579 262.5 544.746C304 530.079 399 510.046 447 547.246C445.5 621.746 464.5 616.246 473.5 618.246C470.5 619.579 458 627.346 432 647.746C399.5 673.246 326.5 673.246 296.5 660.246C272.5 649.846 258.5 624.579 254.5 613.246Z" fill="#F4AA83"/>
<path d="M124 310.746C132.4 298.746 155.833 302.746 166.5 306.246L184 423.246C183.167 425.413 177.8 429.946 163 430.746C148.2 431.546 130.833 396.413 124 378.746C120.5 361.079 115.6 322.746 124 310.746Z" fill="url(#paint1_radial_233_684)"/>
<path d="M550 331.746C550 479.746 444.5 588.746 356.5 588.746C260.5 588.746 163 473.683 163 331.746C163 189.809 249.633 74.7461 356.5 74.7461C463.367 74.7461 550 189.809 550 331.746Z" fill="#FEC6A2"/>
<path d="M494.499 225.747C466.099 204.547 426.501 215.413 408.001 224.246C405.5 225.44 399.5 229.746 401.999 235.746C403.568 239.512 409.333 238.08 412.499 236.746C416.899 234.346 424.999 231.246 436.499 229.746C451.999 227.725 476.499 231.746 481.999 234.746C487.499 237.746 503.499 246.996 506.499 244.746C508.499 243.246 508.899 237.346 494.499 225.747Z" fill="#121516"/>
<ellipse cx="551" cy="420.746" rx="14" ry="20" fill="#FEF0DE"/>
<ellipse cx="14" cy="20" rx="14" ry="20" transform="matrix(-1 0 0 1 177.639 400.746)" fill="#FEF0DE"/>
<ellipse cx="552" cy="461.746" rx="16" ry="21" fill="#FEF0DE"/>
<ellipse cx="16" cy="21" rx="16" ry="21" transform="matrix(-1 0 0 1 178.639 440.746)" fill="#FEF0DE"/>
<path d="M341.5 418.246C333.9 415.046 331.333 416.246 330 416.746C327.876 417.542 326 421.246 327.5 423.746C328.94 426.147 335 428.746 340.5 430.246C350 432.837 368 431.746 376.5 428.246C386.9 425.046 387.166 417.579 386 414.245C384 410.245 377 411.747 374.5 412.746C372 413.745 348.5 421.194 341.5 418.246Z" fill="#EB9A73"/>
<path d="M296 225.246C290.4 222.846 273.166 219.079 264.499 217.746C245.498 214.374 222.499 224.746 216.499 235.246C210.499 245.746 220.5 249.749 223.499 246.746C226.326 243.916 234.499 231.246 249.499 229.746C261.499 228.546 282.5 233.413 289.5 236.746C293.501 238.651 301 243.746 305.499 238.246C309.976 232.772 303 228.246 296 225.246Z" fill="#121516"/>
<path d="M537 266.246C522.6 205.046 453.667 144.413 421 121.746C405 147.746 364.5 171.246 325.5 192.746C286.5 214.246 211 231.246 179.5 278.746C157.88 311.347 165.5 356.746 163.5 347.746C161.9 340.546 145.167 315.079 137 303.246L194 72.2461L497 64.7461C525.333 143.913 580.3 302.246 573.5 302.246C566.7 302.246 554 339.246 548.5 357.746L537 266.246Z" fill="#101111"/>
<path d="M0 855.246C16.4 713.646 55 665.246 82.5 654.246C106.001 642.33 155.138 634.358 198 626.269C211.5 715.746 307.5 785.746 355.5 795.746C455.5 762.746 504.5 672.246 514.5 624.393C545.888 629.418 590.422 637.887 632 651.746C688.4 670.546 708.833 795.246 712 855.246H0Z" fill="#FADEC6"/>
<path d="M252.999 613.746C252.999 621.478 247.179 627.746 239.999 627.746C232.819 627.746 224.999 621.246 226.999 613.746C228.999 606.246 234.82 599.746 242 599.746C249.18 599.746 252.999 606.014 252.999 613.746Z" fill="#FDF2E2"/>
<path d="M475.546 599.686C483.646 601.73 488.674 609.484 486.776 617.006C484.878 624.527 476.001 631.002 468.673 626.924C461.344 622.846 456.073 615.029 457.971 607.508C459.869 599.986 467.445 597.642 475.546 599.686Z" fill="#FDF2E2"/>
<path d="M290.162 680.58C297.489 685.126 300.006 694.328 295.784 701.131C291.562 707.935 280.804 711.523 274.872 705.218C268.941 698.912 266.205 689.574 270.427 682.77C274.649 675.966 282.835 676.033 290.162 680.58Z" fill="#FDF2E2"/>
<path d="M320.86 705.272C322.607 712.668 317.706 720.156 309.913 721.996C302.12 723.836 292.164 719.623 292.64 711.936C293.117 704.25 297.966 696.54 305.759 694.699C313.552 692.859 319.114 697.876 320.86 705.272Z" fill="#FDF2E2"/>
<path d="M334.297 701.418C341.835 698.815 350.189 703.202 352.956 711.216C355.723 719.231 352.401 730.148 344.319 730.44C336.236 730.733 327.656 726.423 324.888 718.409C322.121 710.394 326.759 704.021 334.297 701.418Z" fill="#FDF2E2"/>
<path d="M367.426 703.712C374.964 701.109 383.146 704.998 385.701 712.397C388.256 719.797 384.703 730.045 376.68 730.509C368.656 730.972 360.248 727.161 357.693 719.761C355.138 712.361 359.889 706.315 367.426 703.712Z" fill="#FDF2E2"/>
<path d="M398.488 694.859C406.666 692.035 415.367 695.745 417.922 703.144C420.478 710.544 416.386 720.978 407.741 721.656C399.097 722.334 390.15 718.709 387.595 711.309C385.04 703.909 390.31 697.683 398.488 694.859Z" fill="#FDF2E2"/>
<path d="M427.102 679.448C435.147 676.67 443.674 680.223 446.147 687.384C448.619 694.545 444.55 704.68 436.057 705.38C427.565 706.08 418.797 702.609 416.324 695.448C413.851 688.287 419.057 682.226 427.102 679.448Z" fill="#FDF2E2"/>
<path d="M463.95 665.991C465.195 674.41 460.301 682.109 453.018 683.186C445.735 684.263 436.756 678.358 437.577 669.891C438.398 661.424 443.256 653.473 450.538 652.395C457.821 651.318 462.705 657.571 463.95 665.991Z" fill="#FDF2E2"/>
<path d="M258.869 641.489C261.666 648.202 257.376 656.801 249.446 658.086C241.515 659.37 234.045 653.983 232.76 646.053C231.475 638.122 236.862 630.652 244.793 629.367C252.723 628.082 256.071 634.775 258.869 641.489Z" fill="#FDF2E2"/>
<path d="M477.56 635.994C481.796 641.907 479.549 651.25 472.111 654.285C464.673 657.32 456.182 653.751 453.147 646.313C450.111 638.875 453.68 630.384 461.119 627.348C468.557 624.313 473.324 630.081 477.56 635.994Z" fill="#FDF2E2"/>
<path d="M270.131 662.51C275.551 667.361 275.388 676.969 268.787 681.549C262.186 686.128 253.123 684.489 248.543 677.888C243.964 671.287 245.603 662.223 252.204 657.644C258.805 653.065 264.712 657.659 270.131 662.51Z" fill="#FDF2E2"/>
<path d="M596 750.746C591 764.079 584 803.646 596 855.246" stroke="#D9B599" stroke-width="9" stroke-linecap="round"/>
<path d="M116 750.746C121 764.079 128 803.646 116 855.246" stroke="#D9B599" stroke-width="9" stroke-linecap="round"/>
<path d="M296.5 277.747C253.7 261.347 194.667 273.247 170.5 281.247C168.667 282.58 165 288.347 165 300.747C170.5 402.747 212.833 402.58 234 410.747H269.5C299.9 410.747 321.5 381.413 328.5 366.747L338 339.247C339.5 335.247 345.1 327.147 355.5 326.747C365.9 326.347 371.5 334.913 373 339.247C373.435 340.503 373.5 345.947 381.5 366.747C392.7 399.547 424.167 409.747 438.5 410.747H478.5C544 412.747 549 313.247 551.5 297.247C553.5 284.447 549.333 281.247 547 281.247C512.5 262.746 438.5 268.246 419.5 275.747C407.082 280.649 384.667 293.913 375.5 300.747C362.5 310.747 345.5 306.747 338 300.747C326.5 294.247 316 285.219 296.5 277.747Z" fill="#120E0F"/>
<g filter="url(#filter0_f_233_684)">
<path d="M330 500.068V489.746H381V502.034L359.075 518.746L330 500.068Z" fill="#821910"/>
</g>
<g filter="url(#filter1_i_233_684)">
<path d="M386 482.739C386 490.914 383.412 495.993 356.5 497.579C338.904 498.616 327 494.936 327 483.306C327 475.131 340.671 463.746 357.535 463.746C374.399 463.746 386 474.564 386 482.739Z" fill="#C13D2B"/>
</g>
<g filter="url(#filter2_i_233_684)">
<path d="M385 505.312C387.594 519.578 373.292 533.312 357 533.312C340.708 533.312 326 529.31 326 506.811C326 494.311 334.5 499.309 356 502.31C369.909 504.251 383.454 496.81 385 505.312Z" fill="#C13D2B"/>
</g>
<defs>
<filter id="filter0_f_233_684" x="326" y="485.746" width="59" height="37" filterUnits="userSpaceOnUse" color-interpolation-filters="sRGB">
<feFlood flood-opacity="0" result="BackgroundImageFix"/>
<feBlend mode="normal" in="SourceGraphic" in2="BackgroundImageFix" result="shape"/>
<feGaussianBlur stdDeviation="2" result="effect1_foregroundBlur_233_684"/>
</filter>
<filter id="filter1_i_233_684" x="327" y="463.746" width="59" height="34" filterUnits="userSpaceOnUse" color-interpolation-filters="sRGB">
<feFlood flood-opacity="0" result="BackgroundImageFix"/>
<feBlend mode="normal" in="SourceGraphic" in2="BackgroundImageFix" result="shape"/>
<feColorMatrix in="SourceAlpha" type="matrix" values="0 0 0 0 0 0 0 0 0 0 0 0 0 0 0 0 0 0 127 0" result="hardAlpha"/>
<feOffset/>
<feGaussianBlur stdDeviation="2.5"/>
<feComposite in2="hardAlpha" operator="arithmetic" k2="-1" k3="1"/>
<feColorMatrix type="matrix" values="0 0 0 0 0.458824 0 0 0 0 0.00392157 0 0 0 0 0.00392157 0 0 0 0.8 0"/>
<feBlend mode="normal" in2="shape" result="effect1_innerShadow_233_684"/>
</filter>
<filter id="filter2_i_233_684" x="326" y="498.746" width="59.3057" height="34.5654" filterUnits="userSpaceOnUse" color-interpolation-filters="sRGB">
<feFlood flood-opacity="0" result="BackgroundImageFix"/>
<feBlend mode="normal" in="SourceGraphic" in2="BackgroundImageFix" result="shape"/>
<feColorMatrix in="SourceAlpha" type="matrix" values="0 0 0 0 0 0 0 0 0 0 0 0 0 0 0 0 0 0 127 0" result="hardAlpha"/>
<feOffset/>
<feGaussianBlur stdDeviation="2.5"/>
<feComposite in2="hardAlpha" operator="arithmetic" k2="-1" k3="1"/>
<feColorMatrix type="matrix" values="0 0 0 0 0.458824 0 0 0 0 0.00392157 0 0 0 0 0.00392157 0 0 0 0.8 0"/>
<feBlend mode="normal" in2="shape" result="effect1_innerShadow_233_684"/>
</filter>
<radialGradient id="paint0_radial_233_684" cx="0" cy="0" r="1" gradientUnits="userSpaceOnUse" gradientTransform="translate(541.5 352.246) rotate(44.5692) scale(47.0239 62.8411)">
<stop stop-color="#EFA17A"/>
<stop offset="0.740432" stop-color="#EFA57D"/>
<stop offset="1" stop-color="#FDC4A2"/>
</radialGradient>
<radialGradient id="paint1_radial_233_684" cx="0" cy="0" r="1" gradientUnits="userSpaceOnUse" gradientTransform="translate(173.5 352.246) rotate(135.431) scale(47.0239 62.8411)">
<stop stop-color="#EFA17A"/>
<stop offset="0.740432" stop-color="#EFA57D"/>
<stop offset="1" stop-color="#FDC4A2"/>
</radialGradient>
</defs>
</svg>
