<svg width="361" height="491" viewBox="0 0 361 491" fill="none" xmlns="http://www.w3.org/2000/svg">
<path d="M17.6034 298.3C4.47807 332.375 8.5587 368.659 12.2397 382.542C123.3 397.897 345.169 420.782 344.159 389.483C342.897 350.359 328.068 319.124 314.816 281.578C301.565 244.032 309.768 231.727 290.206 114.356C274.557 20.4593 200.39 -0.700861 165.263 0.456131C49.1545 -2.6992 41.2667 114.356 42.5287 151.902C43.7908 189.448 34.0101 255.706 17.6034 298.3Z" fill="#111110"/>
<path d="M216.376 296.091C215.114 277.16 218.164 256.651 219.847 248.764C187.77 255.6 123.679 274.636 123.931 296.091C124.246 322.909 117.936 320.701 102.476 325.433C87.016 330.166 47.8924 335.214 26.7531 348.781C5.61372 362.348 0.25 433.97 0.25 444.382C4.03615 449.177 23.9135 457.107 33.3788 460.473V483.19C84.8705 495.558 215.956 490.236 275.062 486.029V470.569C294.413 468.886 338.543 461.104 360.25 443.435C357.474 384.119 337.638 355.617 328.068 348.781C315.7 337.423 249.821 320.701 237.831 320.701C231.205 320.385 217.638 315.021 216.376 296.091Z" fill="#063C3A"/>
<path d="M33.3787 460.472V483.189C26.8158 483.189 9.39985 479.193 1.51221 477.195L2.32194 446.274C8.75812 451.055 25.075 457.52 33.3787 460.472Z" fill="#FBC09C"/>
<path d="M271.903 420.763C271.843 420.715 271.785 420.669 271.738 420.634C271.691 420.6 271.653 420.579 271.612 420.573C271.57 420.567 271.528 420.577 271.473 420.597C271.418 420.617 271.35 420.645 271.278 420.674C271.278 420.674 271.278 420.674 271.278 420.674C270.149 421.14 269.541 421.727 269.463 422.354C269.436 422.573 269.41 422.792 269.384 423.013C267.831 438.346 268.367 454.221 273.999 468.682C274.338 469.478 274.7 470.259 275.088 471.011C275.125 471.084 275.187 471.141 275.264 471.17C275.34 471.199 275.425 471.198 275.499 471.165C275.573 471.133 275.632 471.072 275.663 470.996C275.694 470.92 275.694 470.836 275.666 470.759C275.666 470.759 275.666 470.759 275.666 470.759C275.385 469.978 275.129 469.176 274.895 468.364C271.163 453.721 271.621 438.323 273.143 423.456C273.169 423.242 273.194 423.031 273.221 422.82C273.295 422.215 272.857 421.522 271.903 420.763Z" fill="#04221E"/>
<path d="M47.8641 399.078C47.6725 398.992 47.4808 398.905 47.2892 398.818C46.1058 398.881 45.3631 399.281 45.1452 399.815C44.9645 400.256 44.7746 400.738 44.6011 401.193C38.2619 419.443 34.4535 438.179 33.0332 457.282C32.9978 458.342 32.9841 459.433 33.0632 460.482C33.2734 460.476 33.4837 460.47 33.694 460.465C33.7238 459.457 33.8408 458.394 33.977 457.36C37.1833 438.758 41.9643 420.161 48.1348 402.547C48.3007 402.116 48.4805 401.661 48.6496 401.248C48.8542 400.747 48.6013 400 47.8641 399.078Z" fill="#04221E"/>
<path d="M275.062 486.03V470.57C292.291 469.071 329.162 462.738 352.362 448.896V478.142L275.062 486.03Z" fill="#FBC09C"/>
<path d="M219.847 248.764C218.164 256.651 215.114 277.16 216.376 296.091C217.638 315.021 231.206 320.385 237.832 320.701C243.55 320.701 261.527 324.505 280.11 329.716C219.847 387.589 174.098 404.311 140.654 421.034C115.097 409.675 92.0013 396.171 69.9785 383.488V383.48C69.979 373.698 69.9798 355.086 76.92 331.408C87.3299 329.072 96.608 327.23 102.477 325.433C117.937 320.701 124.247 322.909 123.931 296.091C123.679 274.636 187.77 255.6 219.847 248.764Z" fill="#FBC09C"/>
<path d="M262.757 159.789C256.446 159.285 248.138 166.941 244.773 170.832L237.2 220.999C239.724 226.363 246.969 228.571 255.5 222.261C278.532 205.223 276.639 183.138 277.27 173.357C277.901 163.576 270.645 160.42 262.757 159.789Z" fill="url(#paint0_radial_396_4101)"/>
<path d="M262.757 159.789C256.446 159.285 248.138 166.941 244.773 170.832L237.2 220.999C239.724 226.363 246.969 228.571 255.5 222.261C278.532 205.223 276.639 183.138 277.27 173.357C277.901 163.576 270.645 160.42 262.757 159.789Z" fill="url(#paint1_linear_396_4101)"/>
<ellipse cx="247.296" cy="220.999" rx="7.25679" ry="9.78089" fill="#FCF2E5"/>
<path d="M255.815 249.711C255.815 258.075 252.143 261.7 247.612 261.7C243.081 261.7 239.409 258.075 239.409 249.711C239.409 241.347 243.081 231.411 247.612 231.411C252.143 231.411 255.815 241.347 255.815 249.711Z" fill="#FCF2E5"/>
<path d="M215.745 348.465C216.783 351.621 213.707 356.669 209.75 356.669C205.794 356.669 201.01 354.225 201.01 350.043C201.01 345.861 204.217 342.471 208.174 342.471C212.13 342.471 214.707 345.31 215.745 348.465Z" fill="#FDF2E5"/>
<path d="M123.875 349.514C127.075 351.765 127.804 356.791 124.794 359.526C121.784 362.261 116.98 361.876 114.065 358.668C111.149 355.459 111.226 350.64 114.237 347.906C117.247 345.171 120.676 347.263 123.875 349.514Z" fill="#FDF2E5"/>
<path d="M136.068 368.544C132.633 371.116 127.144 370.169 125.314 366.1C123.485 362.032 125.518 357.153 129.855 355.203C134.192 353.253 139.191 354.97 141.02 359.039C142.849 363.107 139.503 365.972 136.068 368.544Z" fill="#FDF2E5"/>
<path d="M151.26 372.587C148.218 374.864 143.357 374.025 141.737 370.422C140.117 366.82 141.918 362.499 145.758 360.772C149.599 359.045 154.026 360.566 155.645 364.169C157.265 367.772 154.302 370.309 151.26 372.587Z" fill="#FDF2E5"/>
<path d="M194.789 364.353C191.058 365.128 187.052 362.093 187.169 357.91C187.287 353.728 190.794 350.433 195.003 350.551C199.213 350.669 202.53 354.155 202.413 358.337C202.296 362.52 198.521 363.578 194.789 364.353Z" fill="#FDF2E5"/>
<path d="M171.478 365.37C173.294 368.741 171.195 373.472 166.786 374.561C162.377 375.651 157.984 373.22 156.974 369.132C155.964 365.044 158.719 360.846 163.129 359.757C167.538 358.668 169.662 361.999 171.478 365.37Z" fill="#FDF2E5"/>
<path d="M177.662 356.813C180.793 354.609 185.74 356.13 187.346 360.379C188.951 364.627 187.06 369.278 183.121 370.767C179.182 372.256 174.687 370.019 173.081 365.77C171.475 361.522 174.53 359.017 177.662 356.813Z" fill="#FDF2E5"/>
<path d="M216.376 296.091C215.114 277.16 218.164 256.651 219.846 248.764C187.769 255.6 123.678 274.636 123.931 296.091C124.143 314.153 121.35 319.048 114.781 321.766C113.13 322.448 111.241 322.993 109.102 323.575C117.41 335.238 141.158 357.3 169.68 352.252C198.202 347.204 219.846 326.588 227.103 316.912C221.898 313.379 217.102 306.979 216.376 296.091Z" fill="#F4AC84"/>
<path d="M246.981 179.498C246.981 247.805 185.771 302.086 138.444 302.086C91.1175 302.086 54.5181 246.712 54.5181 178.405C54.5181 110.097 79.4436 36.4238 147.594 36.4238C200.219 36.4238 246.981 111.19 246.981 179.498Z" fill="#FEC7A7"/>
<path d="M101.845 140.543C80.98 132.382 53.0482 137.824 41.2669 141.805C37.7951 142.436 37.6508 147.082 38.1115 150.008C38.6792 153.614 43.1597 154.174 43.1597 157.58C45.1336 194.945 54.336 200.175 86.0697 200.175C100.89 200.175 112.631 190.435 116.043 183.137L122.45 169.314C123.181 167.323 125.911 163.293 130.981 163.094C136.051 162.895 138.781 167.158 139.512 169.314C139.724 169.939 139.756 172.648 143.656 182.998C149.116 199.319 164.456 204.395 171.443 204.893H186.087C210.919 205.667 221.885 179.149 224.58 163.575C224.818 162.2 225.802 158.849 228.366 158.212C234.103 156.785 243.954 159.12 244.141 157.896C244.286 156.95 246.264 151.342 241.933 149.377C232.468 149.377 225.842 147.574 223.949 146.538C207.13 137.331 172.002 136.811 162.739 140.543C156.685 142.982 144.491 145.662 140.022 149.062C134.028 152.848 125.193 151.739 122.45 150.156C116.843 146.922 111.351 144.261 101.845 140.543Z" fill="#191818"/>
<path d="M210.066 150.64C180.281 141.048 158.532 147.484 151.38 151.902C145.701 156.004 144.755 166.1 148.856 177.774C152.958 189.448 155.798 196.074 183.563 197.967C205.775 199.481 214.693 174.198 216.376 161.367C217.007 158.948 216.629 153.416 210.066 150.64Z" fill="#FEC7A7"/>
<path d="M104.054 148.115C92.4428 141.805 70.6093 143.172 61.1439 144.644C51.2999 146.159 51.7837 169.044 53.2561 180.297C53.1509 183.347 57.9353 192.307 82.2833 194.18C106.893 196.073 114.991 173.461 115.728 161.682C116.359 157.581 111.941 151.27 104.054 148.115Z" fill="#FEC7A7"/>
<path d="M135.289 207.115C133.396 207.746 127.086 207.368 123.3 207.115C118.058 206.766 118.568 203.33 116.043 202.067C114.615 201.353 113.835 205.853 115.412 207.746C116.99 209.639 122.038 213.489 129.61 213.741C137.183 213.994 141.179 209.85 142.231 207.746C144.502 202.446 141.389 203.54 140.022 204.276C139.265 204.781 137.183 206.484 135.289 207.115Z" fill="#EB9A72"/>
<path d="M189.874 167.677C184.573 163.386 174.624 168.623 170.312 171.778C169.47 172.62 166.526 172.725 165.264 171.148C162.74 167.992 166.841 164.837 175.36 161.051C183.879 157.264 193.344 159.473 198.708 163.259C204.072 167.045 204.072 171.778 201.548 173.356C199.023 174.933 196.499 173.04 189.874 167.677Z" fill="#1E190F"/>
<path d="M94.5889 159.474C83.9877 155.183 72.3978 159.579 68.0858 162.629C66.8238 163.05 65.4646 165.784 66.8238 167.993C68.3771 170.517 72.7133 169.781 74.3961 168.624C75.7633 167.783 80.0753 165.848 86.3855 164.838C94.2734 163.576 99.0061 170.517 102.792 168.94C105.821 167.678 104.054 165.048 102.792 163.891C101.215 162.629 99.3216 161.389 94.5889 159.474Z" fill="#1E190F"/>
<path d="M205.018 114.356C155.545 98.4541 120.25 69.448 108.787 56.9327C63.6682 92.2701 56.5166 135.285 51.6787 160.421L53.2563 92.2701L123.931 15.916L209.751 42.4191L277.586 123.19C276.113 135.18 271.086 159.285 262.757 159.79C254.427 160.295 246.035 175.355 242.879 182.822C242.879 142.437 226.473 124.452 205.018 114.356Z" fill="#111111"/>
<path d="M204.387 129.5C190.325 117.914 169.887 120.776 160.246 124.968C158.943 125.534 155.785 127.641 156.935 130.804C157.656 132.789 160.632 132.167 162.279 131.542C164.578 130.39 168.82 130.037 174.729 129.5C182.692 128.777 195.126 131.375 197.873 133.046C200.619 134.716 208.562 138.763 210.142 137.66C211.196 136.924 211.499 135.815 204.387 129.5Z" fill="#151817"/>
<path d="M105 122.875C91.1173 117.827 77.7606 123.927 72.8176 127.608C71.871 128.659 70.2304 131.141 71.24 132.656C72.5021 134.549 73.7641 133.918 81.0209 129.816C88.2777 125.714 98.0586 127.608 105 130.763C110.553 133.286 112.572 131.814 112.888 130.763C114.465 128.554 112.888 125.743 105 122.875Z" fill="#151817"/>
<path d="M118.252 324.803C119.409 328.274 115.003 333.006 110.995 333.006C106.987 333.006 103.738 329.334 103.738 324.803C103.738 320.272 106.987 316.6 110.995 316.6C115.003 316.6 116.674 320.07 118.252 324.803Z" fill="#FDF2E5"/>
<path d="M116.116 337.745C118.617 340.754 118.007 345.796 114.387 347.649C110.767 349.503 106.231 347.877 104.255 344.018C102.279 340.159 103.612 335.528 107.233 333.674C110.853 331.821 113.616 334.736 116.116 337.745Z" fill="#FDF2E5"/>
<path d="M217.895 345.103C214.6 345.89 211.074 342.868 211.192 338.686C211.309 334.504 214.415 331.198 218.13 331.302C221.844 331.406 224.76 334.881 224.643 339.063C224.526 343.245 221.191 344.316 217.895 345.103Z" fill="#FDF2E5"/>
<path d="M218.997 327.588C217.702 324.142 220.137 319.882 224.292 319.388C228.447 318.893 232.204 321.761 232.683 325.792C233.163 329.824 230.184 333.493 226.029 333.987C221.874 334.481 220.292 331.035 218.997 327.588Z" fill="#FDF2E5"/>
<path d="M224.045 317.492C222.75 314.045 225.186 309.785 229.34 309.291C233.495 308.796 237.252 311.664 237.732 315.695C238.211 319.727 235.232 323.396 231.077 323.89C226.923 324.385 225.341 320.938 224.045 317.492Z" fill="#FDF2E5"/>
<path d="M148.541 265.17C139.264 267.073 133.081 257.783 133.081 252.55L152.327 245.924C158.322 247.501 160.846 262.646 148.541 265.17Z" fill="#E15F4D"/>
<path d="M103.738 241.507C105.686 243.55 113.59 250.407 128.507 251.496C143.424 252.586 153.554 245.064 158.006 241.507" stroke="#151817" stroke-width="6.31025" stroke-linecap="round"/>
<defs>
<radialGradient id="paint0_radial_396_4101" cx="0" cy="0" r="1" gradientUnits="userSpaceOnUse" gradientTransform="translate(135.605 213.427) rotate(3.35609) scale(102.402 61.5789)">
<stop offset="0.58918" stop-color="#EFA17A"/>
<stop offset="0.740432" stop-color="#EFA57D"/>
<stop offset="0.933518" stop-color="#FDC4A2"/>
</radialGradient>
<linearGradient id="paint1_linear_396_4101" x1="253.607" y1="191.025" x2="242.248" y2="184.084" gradientUnits="userSpaceOnUse">
<stop offset="0.158006" stop-color="#FEC6A5" stop-opacity="0"/>
<stop offset="0.486965" stop-color="#FEC6A5"/>
</linearGradient>
</defs>
</svg>
