<svg width="1442" height="913" viewBox="0 0 1442 913" fill="none" xmlns="http://www.w3.org/2000/svg">
<path d="M186 229C88 188.6 77.5025 59.8333 85.5025 0L196.004 0.5C252.5 171 441.055 164.575 497.004 167C670.004 174.498 740.269 260.773 752.503 298.5C762.236 328.51 774 401 720.442 456.508L720.558 456.321C752.458 357.96 717.989 324.734 700.5 298.5C678.5 265.5 585.5 214.5 449.5 246.5C340.7 272.1 253.5 256.827 186 229Z" fill="#B85B6D"/>
<path d="M376.231 470.741C310.603 561.216 234.616 606.637 165.338 629.683C103.17 650.364 44.2451 623.646 0.502155 588.293L0.00214499 431C172.002 545.5 316.306 414.246 360.241 379.521C496.094 272.146 605.659 291.537 639.574 312.099C666.528 328.441 725.17 379.396 721.013 456.302L721.003 456.499L720.936 456.343C680.803 361.022 630.59 354.511 600.206 346.081C561.989 335.478 458.265 357.646 376.231 470.741Z" fill="#B85B6D"/>
<path d="M557.961 451.338C522.028 468.126 457.623 552.4 468.809 691.665C476.137 782.895 453.596 854.653 424.512 912L101.5 913C350.5 903 386.558 687.695 397.368 632.747C430.794 462.841 526.654 406.349 565.792 399.926C596.899 394.821 674.592 395.418 721.427 456.569L721.357 456.626C628.909 410.301 586.526 437.993 557.961 451.338Z" fill="#B85B6D"/>
<path d="M591.497 552C576.925 588.887 566.498 670 686.498 815.5C722.129 858.704 725.498 857.5 760.498 912L631.498 912.5C626.498 890.5 614.498 864 568.998 767.5C522.037 667.901 531.132 600.436 536.619 574.93C544.787 527.178 600.798 433.667 720.158 456.136L720.158 456.178C644.482 465.496 603.012 522.852 591.497 552Z" fill="#B85B6D"/>
<path d="M681.997 610.499C695.072 647.944 735.497 720.499 937.997 754.999C993.203 764.405 1113 779.999 1185 911.999L1004 911.999C909.496 826.5 892.211 835.493 791.996 785.999C666.726 724.132 632.467 630.025 636.499 590.57C639.686 559.38 634.818 511.669 720.5 456.5C669.475 512.921 671.68 580.951 681.997 610.499Z" fill="#B85B6D"/>
<path d="M1065.43 434.747C1127.42 346 1179.64 266.78 1248.5 242.5C1310.29 220.712 1353 220 1441.5 242.5L1440.5 154.001C1437.17 149.334 1423.9 135.501 1397.5 117.5C1312.7 51.5005 1224.84 80.0003 1191.5 102.5C1101.5 165 1074.67 233.897 1037.48 339.301C991.003 471.056 901.654 516.296 862 517C830.928 517.552 786.822 534.895 722.774 458.848L722.699 459C764.194 550.04 813.593 555.608 843.72 563.389C882.121 573.308 985.432 549.29 1065.43 434.747Z" fill="#B85B6D"/>
<path d="M792.5 603C826.776 622.953 924 644.999 1112 527.5C1159.49 497.819 1370.5 425.5 1440 582.5L1440.5 808.499C1415 760.999 1370.18 698.958 1317.5 659.999C1221.5 588.999 1110.7 631.975 1002.5 659.998C867.249 695.028 766.884 650.197 744.153 617.696C726.166 591.979 691.816 555.226 720.785 457.2L720.895 455.658L720.895 457.2C718.91 533.198 765.478 587.27 792.5 603Z" fill="#B85B6D"/>
<path d="M872.5 409.5C902.057 383.054 928.499 299.5 894.499 189C878.575 137.25 845 63.9999 837.999 -0.000252887L969.797 9.6754e-05C942.557 79.0354 964.783 166.371 968.002 205C982.002 373 913.119 445.053 877.502 462.5C849.462 476.236 783.47 500.397 721.5 457.105L719.561 455.73C821.597 473.478 848.989 430.536 872.5 409.5Z" fill="#B85B6D"/>
<path d="M738.502 93.4997C868.502 212 861.223 326.088 845.502 362.5C833.081 391.266 796.477 448.954 720.668 455.937C720.557 455.979 720.452 456.027 720.608 455.942C827.992 397.429 811.662 289.152 787.503 247C775.503 223.833 729.603 165.4 642.003 117C554.403 68.5995 506.503 19.1662 493.503 0.499548L649.173 0.49971C681.026 42.7908 721.561 78.0575 738.502 93.4997Z" fill="#B85B6D"/>
</svg>
